<?xml version="1.0" encoding="utf-8" standalone="no"?>
<!DOCTYPE svg PUBLIC "-//W3C//DTD SVG 1.1//EN"
  "http://www.w3.org/Graphics/SVG/1.1/DTD/svg11.dtd">
<!-- Created with matplotlib (http://matplotlib.org/) -->
<svg height="345.6pt" version="1.1" viewBox="0 0 460.8 345.6" width="460.8pt" xmlns="http://www.w3.org/2000/svg" xmlns:xlink="http://www.w3.org/1999/xlink">
 <defs>
  <style type="text/css">
*{stroke-linecap:butt;stroke-linejoin:round;}
  </style>
 </defs>
 <g id="figure_1">
  <g id="patch_1">
   <path d="M 0 345.6 
L 460.8 345.6 
L 460.8 0 
L 0 0 
z
" style="fill:#ffffff;"/>
  </g>
  <g id="axes_1">
   <g id="patch_2">
    <path d="M 54.02 136.24 
L 230.355 136.24 
L 230.355 26.88 
L 54.02 26.88 
z
" style="fill:#ffffff;"/>
   </g>
   <g id="matplotlib.axis_1">
    <g id="xtick_1">
     <g id="line2d_1">
      <path clip-path="url(#p8d3e430d38)" d="M 53.598146 136.24 
L 53.598146 26.88 
" style="fill:none;stroke:#b0b0b0;stroke-linecap:square;stroke-width:0.8;"/>
     </g>
     <g id="line2d_2">
      <defs>
       <path d="M 0 0 
L 0 3.5 
" id="m729e080e46" style="stroke:#000000;stroke-width:0.8;"/>
      </defs>
      <g>
       <use style="stroke:#000000;stroke-width:0.8;" x="53.598146" xlink:href="#m729e080e46" y="136.24"/>
      </g>
     </g>
     <g id="text_1">
      <!-- 0 -->
      <defs>
       <path d="M 31.78125 66.40625 
Q 24.171875 66.40625 20.328125 58.90625 
Q 16.5 51.421875 16.5 36.375 
Q 16.5 21.390625 20.328125 13.890625 
Q 24.171875 6.390625 31.78125 6.390625 
Q 39.453125 6.390625 43.28125 13.890625 
Q 47.125 21.390625 47.125 36.375 
Q 47.125 51.421875 43.28125 58.90625 
Q 39.453125 66.40625 31.78125 66.40625 
z
M 31.78125 74.21875 
Q 44.046875 74.21875 50.515625 64.515625 
Q 56.984375 54.828125 56.984375 36.375 
Q 56.984375 17.96875 50.515625 8.265625 
Q 44.046875 -1.421875 31.78125 -1.421875 
Q 19.53125 -1.421875 13.0625 8.265625 
Q 6.59375 17.96875 6.59375 36.375 
Q 6.59375 54.828125 13.0625 64.515625 
Q 19.53125 74.21875 31.78125 74.21875 
z
" id="DejaVuSans-30"/>
      </defs>
      <g transform="translate(50.416896 150.838437)scale(0.1 -0.1)">
       <use xlink:href="#DejaVuSans-30"/>
      </g>
     </g>
    </g>
    <g id="xtick_2">
     <g id="line2d_3">
      <path clip-path="url(#p8d3e430d38)" d="M 95.783553 136.24 
L 95.783553 26.88 
" style="fill:none;stroke:#b0b0b0;stroke-linecap:square;stroke-width:0.8;"/>
     </g>
     <g id="line2d_4">
      <g>
       <use style="stroke:#000000;stroke-width:0.8;" x="95.783553" xlink:href="#m729e080e46" y="136.24"/>
      </g>
     </g>
     <g id="text_2">
      <!-- 5 -->
      <defs>
       <path d="M 10.796875 72.90625 
L 49.515625 72.90625 
L 49.515625 64.59375 
L 19.828125 64.59375 
L 19.828125 46.734375 
Q 21.96875 47.46875 24.109375 47.828125 
Q 26.265625 48.1875 28.421875 48.1875 
Q 40.625 48.1875 47.75 41.5 
Q 54.890625 34.8125 54.890625 23.390625 
Q 54.890625 11.625 47.5625 5.09375 
Q 40.234375 -1.421875 26.90625 -1.421875 
Q 22.3125 -1.421875 17.546875 -0.640625 
Q 12.796875 0.140625 7.71875 1.703125 
L 7.71875 11.625 
Q 12.109375 9.234375 16.796875 8.0625 
Q 21.484375 6.890625 26.703125 6.890625 
Q 35.15625 6.890625 40.078125 11.328125 
Q 45.015625 15.765625 45.015625 23.390625 
Q 45.015625 31 40.078125 35.4375 
Q 35.15625 39.890625 26.703125 39.890625 
Q 22.75 39.890625 18.8125 39.015625 
Q 14.890625 38.140625 10.796875 36.28125 
z
" id="DejaVuSans-35"/>
      </defs>
      <g transform="translate(92.602303 150.838437)scale(0.1 -0.1)">
       <use xlink:href="#DejaVuSans-35"/>
      </g>
     </g>
    </g>
    <g id="xtick_3">
     <g id="line2d_5">
      <path clip-path="url(#p8d3e430d38)" d="M 137.968959 136.24 
L 137.968959 26.88 
" style="fill:none;stroke:#b0b0b0;stroke-linecap:square;stroke-width:0.8;"/>
     </g>
     <g id="line2d_6">
      <g>
       <use style="stroke:#000000;stroke-width:0.8;" x="137.968959" xlink:href="#m729e080e46" y="136.24"/>
      </g>
     </g>
     <g id="text_3">
      <!-- 10 -->
      <defs>
       <path d="M 12.40625 8.296875 
L 28.515625 8.296875 
L 28.515625 63.921875 
L 10.984375 60.40625 
L 10.984375 69.390625 
L 28.421875 72.90625 
L 38.28125 72.90625 
L 38.28125 8.296875 
L 54.390625 8.296875 
L 54.390625 0 
L 12.40625 0 
z
" id="DejaVuSans-31"/>
      </defs>
      <g transform="translate(131.606459 150.838437)scale(0.1 -0.1)">
       <use xlink:href="#DejaVuSans-31"/>
       <use x="63.623047" xlink:href="#DejaVuSans-30"/>
      </g>
     </g>
    </g>
    <g id="xtick_4">
     <g id="line2d_7">
      <path clip-path="url(#p8d3e430d38)" d="M 180.154366 136.24 
L 180.154366 26.88 
" style="fill:none;stroke:#b0b0b0;stroke-linecap:square;stroke-width:0.8;"/>
     </g>
     <g id="line2d_8">
      <g>
       <use style="stroke:#000000;stroke-width:0.8;" x="180.154366" xlink:href="#m729e080e46" y="136.24"/>
      </g>
     </g>
     <g id="text_4">
      <!-- 15 -->
      <g transform="translate(173.791866 150.838437)scale(0.1 -0.1)">
       <use xlink:href="#DejaVuSans-31"/>
       <use x="63.623047" xlink:href="#DejaVuSans-35"/>
      </g>
     </g>
    </g>
    <g id="xtick_5">
     <g id="line2d_9">
      <path clip-path="url(#p8d3e430d38)" d="M 222.339773 136.24 
L 222.339773 26.88 
" style="fill:none;stroke:#b0b0b0;stroke-linecap:square;stroke-width:0.8;"/>
     </g>
     <g id="line2d_10">
      <g>
       <use style="stroke:#000000;stroke-width:0.8;" x="222.339773" xlink:href="#m729e080e46" y="136.24"/>
      </g>
     </g>
     <g id="text_5">
      <!-- 20 -->
      <defs>
       <path d="M 19.1875 8.296875 
L 53.609375 8.296875 
L 53.609375 0 
L 7.328125 0 
L 7.328125 8.296875 
Q 12.9375 14.109375 22.625 23.890625 
Q 32.328125 33.6875 34.8125 36.53125 
Q 39.546875 41.84375 41.421875 45.53125 
Q 43.3125 49.21875 43.3125 52.78125 
Q 43.3125 58.59375 39.234375 62.25 
Q 35.15625 65.921875 28.609375 65.921875 
Q 23.96875 65.921875 18.8125 64.3125 
Q 13.671875 62.703125 7.8125 59.421875 
L 7.8125 69.390625 
Q 13.765625 71.78125 18.9375 73 
Q 24.125 74.21875 28.421875 74.21875 
Q 39.75 74.21875 46.484375 68.546875 
Q 53.21875 62.890625 53.21875 53.421875 
Q 53.21875 48.921875 51.53125 44.890625 
Q 49.859375 40.875 45.40625 35.40625 
Q 44.1875 33.984375 37.640625 27.21875 
Q 31.109375 20.453125 19.1875 8.296875 
z
" id="DejaVuSans-32"/>
      </defs>
      <g transform="translate(215.977273 150.838437)scale(0.1 -0.1)">
       <use xlink:href="#DejaVuSans-32"/>
       <use x="63.623047" xlink:href="#DejaVuSans-30"/>
      </g>
     </g>
    </g>
    <g id="text_6">
     <!-- threads -->
     <defs>
      <path d="M 18.3125 70.21875 
L 18.3125 54.6875 
L 36.8125 54.6875 
L 36.8125 47.703125 
L 18.3125 47.703125 
L 18.3125 18.015625 
Q 18.3125 11.328125 20.140625 9.421875 
Q 21.96875 7.515625 27.59375 7.515625 
L 36.8125 7.515625 
L 36.8125 0 
L 27.59375 0 
Q 17.1875 0 13.234375 3.875 
Q 9.28125 7.765625 9.28125 18.015625 
L 9.28125 47.703125 
L 2.6875 47.703125 
L 2.6875 54.6875 
L 9.28125 54.6875 
L 9.28125 70.21875 
z
" id="DejaVuSans-74"/>
      <path d="M 54.890625 33.015625 
L 54.890625 0 
L 45.90625 0 
L 45.90625 32.71875 
Q 45.90625 40.484375 42.875 44.328125 
Q 39.84375 48.1875 33.796875 48.1875 
Q 26.515625 48.1875 22.3125 43.546875 
Q 18.109375 38.921875 18.109375 30.90625 
L 18.109375 0 
L 9.078125 0 
L 9.078125 75.984375 
L 18.109375 75.984375 
L 18.109375 46.1875 
Q 21.34375 51.125 25.703125 53.5625 
Q 30.078125 56 35.796875 56 
Q 45.21875 56 50.046875 50.171875 
Q 54.890625 44.34375 54.890625 33.015625 
z
" id="DejaVuSans-68"/>
      <path d="M 41.109375 46.296875 
Q 39.59375 47.171875 37.8125 47.578125 
Q 36.03125 48 33.890625 48 
Q 26.265625 48 22.1875 43.046875 
Q 18.109375 38.09375 18.109375 28.8125 
L 18.109375 0 
L 9.078125 0 
L 9.078125 54.6875 
L 18.109375 54.6875 
L 18.109375 46.1875 
Q 20.953125 51.171875 25.484375 53.578125 
Q 30.03125 56 36.53125 56 
Q 37.453125 56 38.578125 55.875 
Q 39.703125 55.765625 41.0625 55.515625 
z
" id="DejaVuSans-72"/>
      <path d="M 56.203125 29.59375 
L 56.203125 25.203125 
L 14.890625 25.203125 
Q 15.484375 15.921875 20.484375 11.0625 
Q 25.484375 6.203125 34.421875 6.203125 
Q 39.59375 6.203125 44.453125 7.46875 
Q 49.3125 8.734375 54.109375 11.28125 
L 54.109375 2.78125 
Q 49.265625 0.734375 44.1875 -0.34375 
Q 39.109375 -1.421875 33.890625 -1.421875 
Q 20.796875 -1.421875 13.15625 6.1875 
Q 5.515625 13.8125 5.515625 26.8125 
Q 5.515625 40.234375 12.765625 48.109375 
Q 20.015625 56 32.328125 56 
Q 43.359375 56 49.78125 48.890625 
Q 56.203125 41.796875 56.203125 29.59375 
z
M 47.21875 32.234375 
Q 47.125 39.59375 43.09375 43.984375 
Q 39.0625 48.390625 32.421875 48.390625 
Q 24.90625 48.390625 20.390625 44.140625 
Q 15.875 39.890625 15.1875 32.171875 
z
" id="DejaVuSans-65"/>
      <path d="M 34.28125 27.484375 
Q 23.390625 27.484375 19.1875 25 
Q 14.984375 22.515625 14.984375 16.5 
Q 14.984375 11.71875 18.140625 8.90625 
Q 21.296875 6.109375 26.703125 6.109375 
Q 34.1875 6.109375 38.703125 11.40625 
Q 43.21875 16.703125 43.21875 25.484375 
L 43.21875 27.484375 
z
M 52.203125 31.203125 
L 52.203125 0 
L 43.21875 0 
L 43.21875 8.296875 
Q 40.140625 3.328125 35.546875 0.953125 
Q 30.953125 -1.421875 24.3125 -1.421875 
Q 15.921875 -1.421875 10.953125 3.296875 
Q 6 8.015625 6 15.921875 
Q 6 25.140625 12.171875 29.828125 
Q 18.359375 34.515625 30.609375 34.515625 
L 43.21875 34.515625 
L 43.21875 35.40625 
Q 43.21875 41.609375 39.140625 45 
Q 35.0625 48.390625 27.6875 48.390625 
Q 23 48.390625 18.546875 47.265625 
Q 14.109375 46.140625 10.015625 43.890625 
L 10.015625 52.203125 
Q 14.9375 54.109375 19.578125 55.046875 
Q 24.21875 56 28.609375 56 
Q 40.484375 56 46.34375 49.84375 
Q 52.203125 43.703125 52.203125 31.203125 
z
" id="DejaVuSans-61"/>
      <path d="M 45.40625 46.390625 
L 45.40625 75.984375 
L 54.390625 75.984375 
L 54.390625 0 
L 45.40625 0 
L 45.40625 8.203125 
Q 42.578125 3.328125 38.25 0.953125 
Q 33.9375 -1.421875 27.875 -1.421875 
Q 17.96875 -1.421875 11.734375 6.484375 
Q 5.515625 14.40625 5.515625 27.296875 
Q 5.515625 40.1875 11.734375 48.09375 
Q 17.96875 56 27.875 56 
Q 33.9375 56 38.25 53.625 
Q 42.578125 51.265625 45.40625 46.390625 
z
M 14.796875 27.296875 
Q 14.796875 17.390625 18.875 11.75 
Q 22.953125 6.109375 30.078125 6.109375 
Q 37.203125 6.109375 41.296875 11.75 
Q 45.40625 17.390625 45.40625 27.296875 
Q 45.40625 37.203125 41.296875 42.84375 
Q 37.203125 48.484375 30.078125 48.484375 
Q 22.953125 48.484375 18.875 42.84375 
Q 14.796875 37.203125 14.796875 27.296875 
z
" id="DejaVuSans-64"/>
      <path d="M 44.28125 53.078125 
L 44.28125 44.578125 
Q 40.484375 46.53125 36.375 47.5 
Q 32.28125 48.484375 27.875 48.484375 
Q 21.1875 48.484375 17.84375 46.4375 
Q 14.5 44.390625 14.5 40.28125 
Q 14.5 37.15625 16.890625 35.375 
Q 19.28125 33.59375 26.515625 31.984375 
L 29.59375 31.296875 
Q 39.15625 29.25 43.1875 25.515625 
Q 47.21875 21.78125 47.21875 15.09375 
Q 47.21875 7.46875 41.1875 3.015625 
Q 35.15625 -1.421875 24.609375 -1.421875 
Q 20.21875 -1.421875 15.453125 -0.5625 
Q 10.6875 0.296875 5.421875 2 
L 5.421875 11.28125 
Q 10.40625 8.6875 15.234375 7.390625 
Q 20.0625 6.109375 24.8125 6.109375 
Q 31.15625 6.109375 34.5625 8.28125 
Q 37.984375 10.453125 37.984375 14.40625 
Q 37.984375 18.0625 35.515625 20.015625 
Q 33.0625 21.96875 24.703125 23.78125 
L 21.578125 24.515625 
Q 13.234375 26.265625 9.515625 29.90625 
Q 5.8125 33.546875 5.8125 39.890625 
Q 5.8125 47.609375 11.28125 51.796875 
Q 16.75 56 26.8125 56 
Q 31.78125 56 36.171875 55.265625 
Q 40.578125 54.546875 44.28125 53.078125 
z
" id="DejaVuSans-73"/>
     </defs>
     <g transform="translate(123.085156 164.516562)scale(0.1 -0.1)">
      <use xlink:href="#DejaVuSans-74"/>
      <use x="39.208984" xlink:href="#DejaVuSans-68"/>
      <use x="102.587891" xlink:href="#DejaVuSans-72"/>
      <use x="143.669922" xlink:href="#DejaVuSans-65"/>
      <use x="205.193359" xlink:href="#DejaVuSans-61"/>
      <use x="266.472656" xlink:href="#DejaVuSans-64"/>
      <use x="329.949219" xlink:href="#DejaVuSans-73"/>
     </g>
    </g>
   </g>
   <g id="matplotlib.axis_2">
    <g id="ytick_1">
     <g id="line2d_11">
      <path clip-path="url(#p8d3e430d38)" d="M 54.02 131.694436 
L 230.355 131.694436 
" style="fill:none;stroke:#b0b0b0;stroke-linecap:square;stroke-width:0.8;"/>
     </g>
     <g id="line2d_12">
      <defs>
       <path d="M 0 0 
L -3.5 0 
" id="mffe5a48af4" style="stroke:#000000;stroke-width:0.8;"/>
      </defs>
      <g>
       <use style="stroke:#000000;stroke-width:0.8;" x="54.02" xlink:href="#mffe5a48af4" y="131.694436"/>
      </g>
     </g>
     <g id="text_7">
      <!-- 0 -->
      <g transform="translate(40.6575 135.493655)scale(0.1 -0.1)">
       <use xlink:href="#DejaVuSans-30"/>
      </g>
     </g>
    </g>
    <g id="ytick_2">
     <g id="line2d_13">
      <path clip-path="url(#p8d3e430d38)" d="M 54.02 90.108763 
L 230.355 90.108763 
" style="fill:none;stroke:#b0b0b0;stroke-linecap:square;stroke-width:0.8;"/>
     </g>
     <g id="line2d_14">
      <g>
       <use style="stroke:#000000;stroke-width:0.8;" x="54.02" xlink:href="#mffe5a48af4" y="90.108763"/>
      </g>
     </g>
     <g id="text_8">
      <!-- 20 -->
      <g transform="translate(34.295 93.907982)scale(0.1 -0.1)">
       <use xlink:href="#DejaVuSans-32"/>
       <use x="63.623047" xlink:href="#DejaVuSans-30"/>
      </g>
     </g>
    </g>
    <g id="ytick_3">
     <g id="line2d_15">
      <path clip-path="url(#p8d3e430d38)" d="M 54.02 48.52309 
L 230.355 48.52309 
" style="fill:none;stroke:#b0b0b0;stroke-linecap:square;stroke-width:0.8;"/>
     </g>
     <g id="line2d_16">
      <g>
       <use style="stroke:#000000;stroke-width:0.8;" x="54.02" xlink:href="#mffe5a48af4" y="48.52309"/>
      </g>
     </g>
     <g id="text_9">
      <!-- 40 -->
      <defs>
       <path d="M 37.796875 64.3125 
L 12.890625 25.390625 
L 37.796875 25.390625 
z
M 35.203125 72.90625 
L 47.609375 72.90625 
L 47.609375 25.390625 
L 58.015625 25.390625 
L 58.015625 17.1875 
L 47.609375 17.1875 
L 47.609375 0 
L 37.796875 0 
L 37.796875 17.1875 
L 4.890625 17.1875 
L 4.890625 26.703125 
z
" id="DejaVuSans-34"/>
      </defs>
      <g transform="translate(34.295 52.322309)scale(0.1 -0.1)">
       <use xlink:href="#DejaVuSans-34"/>
       <use x="63.623047" xlink:href="#DejaVuSans-30"/>
      </g>
     </g>
    </g>
    <g id="text_10">
     <!-- time -->
     <defs>
      <path d="M 9.421875 54.6875 
L 18.40625 54.6875 
L 18.40625 0 
L 9.421875 0 
z
M 9.421875 75.984375 
L 18.40625 75.984375 
L 18.40625 64.59375 
L 9.421875 64.59375 
z
" id="DejaVuSans-69"/>
      <path d="M 52 44.1875 
Q 55.375 50.25 60.0625 53.125 
Q 64.75 56 71.09375 56 
Q 79.640625 56 84.28125 50.015625 
Q 88.921875 44.046875 88.921875 33.015625 
L 88.921875 0 
L 79.890625 0 
L 79.890625 32.71875 
Q 79.890625 40.578125 77.09375 44.375 
Q 74.3125 48.1875 68.609375 48.1875 
Q 61.625 48.1875 57.5625 43.546875 
Q 53.515625 38.921875 53.515625 30.90625 
L 53.515625 0 
L 44.484375 0 
L 44.484375 32.71875 
Q 44.484375 40.625 41.703125 44.40625 
Q 38.921875 48.1875 33.109375 48.1875 
Q 26.21875 48.1875 22.15625 43.53125 
Q 18.109375 38.875 18.109375 30.90625 
L 18.109375 0 
L 9.078125 0 
L 9.078125 54.6875 
L 18.109375 54.6875 
L 18.109375 46.1875 
Q 21.1875 51.21875 25.484375 53.609375 
Q 29.78125 56 35.6875 56 
Q 41.65625 56 45.828125 52.96875 
Q 50 49.953125 52 44.1875 
z
" id="DejaVuSans-6d"/>
     </defs>
     <g transform="translate(28.215313 92.856094)rotate(-90)scale(0.1 -0.1)">
      <use xlink:href="#DejaVuSans-74"/>
      <use x="39.208984" xlink:href="#DejaVuSans-69"/>
      <use x="66.992188" xlink:href="#DejaVuSans-6d"/>
      <use x="164.404297" xlink:href="#DejaVuSans-65"/>
     </g>
    </g>
   </g>
   <g id="line2d_17">
    <path clip-path="url(#p8d3e430d38)" d="M 62.035227 131.269091 
L 70.472309 131.12301 
L 87.346471 131.206776 
L 121.094797 131.127922 
L 137.968959 131.100537 
L 205.46561 130.920806 
L 222.339773 130.87263 
" style="fill:none;stroke:#1f77b4;stroke-linecap:square;stroke-width:1.5;"/>
    <defs>
     <path d="M 0 1.5 
C 0.397805 1.5 0.77937 1.341951 1.06066 1.06066 
C 1.341951 0.77937 1.5 0.397805 1.5 0 
C 1.5 -0.397805 1.341951 -0.77937 1.06066 -1.06066 
C 0.77937 -1.341951 0.397805 -1.5 0 -1.5 
C -0.397805 -1.5 -0.77937 -1.341951 -1.06066 -1.06066 
C -1.341951 -0.77937 -1.5 -0.397805 -1.5 0 
C -1.5 0.397805 -1.341951 0.77937 -1.06066 1.06066 
C -0.77937 1.341951 -0.397805 1.5 0 1.5 
z
" id="mb24498c08b" style="stroke:#1f77b4;"/>
    </defs>
    <g clip-path="url(#p8d3e430d38)">
     <use style="fill:#1f77b4;stroke:#1f77b4;" x="62.035227" xlink:href="#mb24498c08b" y="131.269091"/>
     <use style="fill:#1f77b4;stroke:#1f77b4;" x="70.472309" xlink:href="#mb24498c08b" y="131.12301"/>
     <use style="fill:#1f77b4;stroke:#1f77b4;" x="87.346471" xlink:href="#mb24498c08b" y="131.206776"/>
     <use style="fill:#1f77b4;stroke:#1f77b4;" x="121.094797" xlink:href="#mb24498c08b" y="131.127922"/>
     <use style="fill:#1f77b4;stroke:#1f77b4;" x="137.968959" xlink:href="#mb24498c08b" y="131.100537"/>
     <use style="fill:#1f77b4;stroke:#1f77b4;" x="205.46561" xlink:href="#mb24498c08b" y="130.920806"/>
     <use style="fill:#1f77b4;stroke:#1f77b4;" x="222.339773" xlink:href="#mb24498c08b" y="130.87263"/>
    </g>
   </g>
   <g id="line2d_18">
    <path clip-path="url(#p8d3e430d38)" d="M 62.035227 118.347501 
L 70.472309 123.360806 
L 87.346471 125.764728 
L 121.094797 126.651265 
L 137.968959 126.743835 
L 205.46561 125.694518 
L 222.339773 125.092752 
" style="fill:none;stroke:#ff7f0e;stroke-linecap:square;stroke-width:1.5;"/>
    <defs>
     <path d="M 0 1.5 
C 0.397805 1.5 0.77937 1.341951 1.06066 1.06066 
C 1.341951 0.77937 1.5 0.397805 1.5 0 
C 1.5 -0.397805 1.341951 -0.77937 1.06066 -1.06066 
C 0.77937 -1.341951 0.397805 -1.5 0 -1.5 
C -0.397805 -1.5 -0.77937 -1.341951 -1.06066 -1.06066 
C -1.341951 -0.77937 -1.5 -0.397805 -1.5 0 
C -1.5 0.397805 -1.341951 0.77937 -1.06066 1.06066 
C -0.77937 1.341951 -0.397805 1.5 0 1.5 
z
" id="m2765cb3295" style="stroke:#ff7f0e;"/>
    </defs>
    <g clip-path="url(#p8d3e430d38)">
     <use style="fill:#ff7f0e;stroke:#ff7f0e;" x="62.035227" xlink:href="#m2765cb3295" y="118.347501"/>
     <use style="fill:#ff7f0e;stroke:#ff7f0e;" x="70.472309" xlink:href="#m2765cb3295" y="123.360806"/>
     <use style="fill:#ff7f0e;stroke:#ff7f0e;" x="87.346471" xlink:href="#m2765cb3295" y="125.764728"/>
     <use style="fill:#ff7f0e;stroke:#ff7f0e;" x="121.094797" xlink:href="#m2765cb3295" y="126.651265"/>
     <use style="fill:#ff7f0e;stroke:#ff7f0e;" x="137.968959" xlink:href="#m2765cb3295" y="126.743835"/>
     <use style="fill:#ff7f0e;stroke:#ff7f0e;" x="205.46561" xlink:href="#m2765cb3295" y="125.694518"/>
     <use style="fill:#ff7f0e;stroke:#ff7f0e;" x="222.339773" xlink:href="#m2765cb3295" y="125.092752"/>
    </g>
   </g>
   <g id="line2d_19">
    <path clip-path="url(#p8d3e430d38)" d="M 62.035227 95.162739 
L 70.472309 111.177618 
L 87.346471 118.684053 
L 121.094797 121.337192 
L 137.968959 122.172232 
L 205.46561 121.884473 
L 222.339773 120.875445 
" style="fill:none;stroke:#2ca02c;stroke-linecap:square;stroke-width:1.5;"/>
    <defs>
     <path d="M 0 1.5 
C 0.397805 1.5 0.77937 1.341951 1.06066 1.06066 
C 1.341951 0.77937 1.5 0.397805 1.5 0 
C 1.5 -0.397805 1.341951 -0.77937 1.06066 -1.06066 
C 0.77937 -1.341951 0.397805 -1.5 0 -1.5 
C -0.397805 -1.5 -0.77937 -1.341951 -1.06066 -1.06066 
C -1.341951 -0.77937 -1.5 -0.397805 -1.5 0 
C -1.5 0.397805 -1.341951 0.77937 -1.06066 1.06066 
C -0.77937 1.341951 -0.397805 1.5 0 1.5 
z
" id="m92f2b94504" style="stroke:#2ca02c;"/>
    </defs>
    <g clip-path="url(#p8d3e430d38)">
     <use style="fill:#2ca02c;stroke:#2ca02c;" x="62.035227" xlink:href="#m92f2b94504" y="95.162739"/>
     <use style="fill:#2ca02c;stroke:#2ca02c;" x="70.472309" xlink:href="#m92f2b94504" y="111.177618"/>
     <use style="fill:#2ca02c;stroke:#2ca02c;" x="87.346471" xlink:href="#m92f2b94504" y="118.684053"/>
     <use style="fill:#2ca02c;stroke:#2ca02c;" x="121.094797" xlink:href="#m92f2b94504" y="121.337192"/>
     <use style="fill:#2ca02c;stroke:#2ca02c;" x="137.968959" xlink:href="#m92f2b94504" y="122.172232"/>
     <use style="fill:#2ca02c;stroke:#2ca02c;" x="205.46561" xlink:href="#m92f2b94504" y="121.884473"/>
     <use style="fill:#2ca02c;stroke:#2ca02c;" x="222.339773" xlink:href="#m92f2b94504" y="120.875445"/>
    </g>
   </g>
   <g id="line2d_20">
    <path clip-path="url(#p8d3e430d38)" d="M 62.035227 31.850909 
L 70.472309 87.772965 
L 87.346471 106.09589 
L 121.094797 113.177729 
L 137.968959 115.001919 
L 205.46561 114.077303 
L 222.339773 114.582389 
" style="fill:none;stroke:#d62728;stroke-linecap:square;stroke-width:1.5;"/>
    <defs>
     <path d="M 0 1.5 
C 0.397805 1.5 0.77937 1.341951 1.06066 1.06066 
C 1.341951 0.77937 1.5 0.397805 1.5 0 
C 1.5 -0.397805 1.341951 -0.77937 1.06066 -1.06066 
C 0.77937 -1.341951 0.397805 -1.5 0 -1.5 
C -0.397805 -1.5 -0.77937 -1.341951 -1.06066 -1.06066 
C -1.341951 -0.77937 -1.5 -0.397805 -1.5 0 
C -1.5 0.397805 -1.341951 0.77937 -1.06066 1.06066 
C -0.77937 1.341951 -0.397805 1.5 0 1.5 
z
" id="m649b630512" style="stroke:#d62728;"/>
    </defs>
    <g clip-path="url(#p8d3e430d38)">
     <use style="fill:#d62728;stroke:#d62728;" x="62.035227" xlink:href="#m649b630512" y="31.850909"/>
     <use style="fill:#d62728;stroke:#d62728;" x="70.472309" xlink:href="#m649b630512" y="87.772965"/>
     <use style="fill:#d62728;stroke:#d62728;" x="87.346471" xlink:href="#m649b630512" y="106.09589"/>
     <use style="fill:#d62728;stroke:#d62728;" x="121.094797" xlink:href="#m649b630512" y="113.177729"/>
     <use style="fill:#d62728;stroke:#d62728;" x="137.968959" xlink:href="#m649b630512" y="115.001919"/>
     <use style="fill:#d62728;stroke:#d62728;" x="205.46561" xlink:href="#m649b630512" y="114.077303"/>
     <use style="fill:#d62728;stroke:#d62728;" x="222.339773" xlink:href="#m649b630512" y="114.582389"/>
    </g>
   </g>
   <g id="patch_3">
    <path d="M 54.02 136.24 
L 54.02 26.88 
" style="fill:none;stroke:#000000;stroke-linecap:square;stroke-linejoin:miter;stroke-width:0.8;"/>
   </g>
   <g id="patch_4">
    <path d="M 230.355 136.24 
L 230.355 26.88 
" style="fill:none;stroke:#000000;stroke-linecap:square;stroke-linejoin:miter;stroke-width:0.8;"/>
   </g>
   <g id="patch_5">
    <path d="M 54.02 136.24 
L 230.355 136.24 
" style="fill:none;stroke:#000000;stroke-linecap:square;stroke-linejoin:miter;stroke-width:0.8;"/>
   </g>
   <g id="patch_6">
    <path d="M 54.02 26.88 
L 230.355 26.88 
" style="fill:none;stroke:#000000;stroke-linecap:square;stroke-linejoin:miter;stroke-width:0.8;"/>
   </g>
   <g id="text_11">
    <!-- Runtime -->
    <defs>
     <path d="M 44.390625 34.1875 
Q 47.5625 33.109375 50.5625 29.59375 
Q 53.5625 26.078125 56.59375 19.921875 
L 66.609375 0 
L 56 0 
L 46.6875 18.703125 
Q 43.0625 26.03125 39.671875 28.421875 
Q 36.28125 30.8125 30.421875 30.8125 
L 19.671875 30.8125 
L 19.671875 0 
L 9.8125 0 
L 9.8125 72.90625 
L 32.078125 72.90625 
Q 44.578125 72.90625 50.734375 67.671875 
Q 56.890625 62.453125 56.890625 51.90625 
Q 56.890625 45.015625 53.6875 40.46875 
Q 50.484375 35.9375 44.390625 34.1875 
z
M 19.671875 64.796875 
L 19.671875 38.921875 
L 32.078125 38.921875 
Q 39.203125 38.921875 42.84375 42.21875 
Q 46.484375 45.515625 46.484375 51.90625 
Q 46.484375 58.296875 42.84375 61.546875 
Q 39.203125 64.796875 32.078125 64.796875 
z
" id="DejaVuSans-52"/>
     <path d="M 8.5 21.578125 
L 8.5 54.6875 
L 17.484375 54.6875 
L 17.484375 21.921875 
Q 17.484375 14.15625 20.5 10.265625 
Q 23.53125 6.390625 29.59375 6.390625 
Q 36.859375 6.390625 41.078125 11.03125 
Q 45.3125 15.671875 45.3125 23.6875 
L 45.3125 54.6875 
L 54.296875 54.6875 
L 54.296875 0 
L 45.3125 0 
L 45.3125 8.40625 
Q 42.046875 3.421875 37.71875 1 
Q 33.40625 -1.421875 27.6875 -1.421875 
Q 18.265625 -1.421875 13.375 4.4375 
Q 8.5 10.296875 8.5 21.578125 
z
M 31.109375 56 
z
" id="DejaVuSans-75"/>
     <path d="M 54.890625 33.015625 
L 54.890625 0 
L 45.90625 0 
L 45.90625 32.71875 
Q 45.90625 40.484375 42.875 44.328125 
Q 39.84375 48.1875 33.796875 48.1875 
Q 26.515625 48.1875 22.3125 43.546875 
Q 18.109375 38.921875 18.109375 30.90625 
L 18.109375 0 
L 9.078125 0 
L 9.078125 54.6875 
L 18.109375 54.6875 
L 18.109375 46.1875 
Q 21.34375 51.125 25.703125 53.5625 
Q 30.078125 56 35.796875 56 
Q 45.21875 56 50.046875 50.171875 
Q 54.890625 44.34375 54.890625 33.015625 
z
" id="DejaVuSans-6e"/>
    </defs>
    <g transform="translate(116.861875 20.88)scale(0.12 -0.12)">
     <use xlink:href="#DejaVuSans-52"/>
     <use x="69.419922" xlink:href="#DejaVuSans-75"/>
     <use x="132.798828" xlink:href="#DejaVuSans-6e"/>
     <use x="196.177734" xlink:href="#DejaVuSans-74"/>
     <use x="235.386719" xlink:href="#DejaVuSans-69"/>
     <use x="263.169922" xlink:href="#DejaVuSans-6d"/>
     <use x="360.582031" xlink:href="#DejaVuSans-65"/>
    </g>
   </g>
   <g id="legend_1">
    <g id="patch_7">
     <path d="M 147.086928 102.974238 
L 225.497 102.974238 
Q 226.885 102.974238 226.885 101.586238 
L 226.885 61.533762 
Q 226.885 60.145762 225.497 60.145762 
L 147.086928 60.145762 
Q 145.698928 60.145762 145.698928 61.533762 
L 145.698928 101.586238 
Q 145.698928 102.974238 147.086928 102.974238 
z
" style="fill:#ffffff;opacity:0.8;stroke:#cccccc;stroke-linejoin:miter;"/>
    </g>
    <g id="line2d_21">
     <path d="M 148.474928 65.766078 
L 162.354928 65.766078 
" style="fill:none;stroke:#1f77b4;stroke-linecap:square;stroke-width:1.5;"/>
    </g>
    <g id="line2d_22">
     <g>
      <use style="fill:#1f77b4;stroke:#1f77b4;" x="155.414928" xlink:href="#mb24498c08b" y="65.766078"/>
     </g>
    </g>
    <g id="text_12">
     <!-- Grid 100x100 -->
     <defs>
      <path d="M 59.515625 10.40625 
L 59.515625 29.984375 
L 43.40625 29.984375 
L 43.40625 38.09375 
L 69.28125 38.09375 
L 69.28125 6.78125 
Q 63.578125 2.734375 56.6875 0.65625 
Q 49.8125 -1.421875 42 -1.421875 
Q 24.90625 -1.421875 15.25 8.5625 
Q 5.609375 18.5625 5.609375 36.375 
Q 5.609375 54.25 15.25 64.234375 
Q 24.90625 74.21875 42 74.21875 
Q 49.125 74.21875 55.546875 72.453125 
Q 61.96875 70.703125 67.390625 67.28125 
L 67.390625 56.78125 
Q 61.921875 61.421875 55.765625 63.765625 
Q 49.609375 66.109375 42.828125 66.109375 
Q 29.4375 66.109375 22.71875 58.640625 
Q 16.015625 51.171875 16.015625 36.375 
Q 16.015625 21.625 22.71875 14.15625 
Q 29.4375 6.6875 42.828125 6.6875 
Q 48.046875 6.6875 52.140625 7.59375 
Q 56.25 8.5 59.515625 10.40625 
z
" id="DejaVuSans-47"/>
      <path id="DejaVuSans-20"/>
      <path d="M 54.890625 54.6875 
L 35.109375 28.078125 
L 55.90625 0 
L 45.3125 0 
L 29.390625 21.484375 
L 13.484375 0 
L 2.875 0 
L 24.125 28.609375 
L 4.6875 54.6875 
L 15.28125 54.6875 
L 29.78125 35.203125 
L 44.28125 54.6875 
z
" id="DejaVuSans-78"/>
     </defs>
     <g transform="translate(167.906928 68.195078)scale(0.0694 -0.0694)">
      <use xlink:href="#DejaVuSans-47"/>
      <use x="77.490234" xlink:href="#DejaVuSans-72"/>
      <use x="118.603516" xlink:href="#DejaVuSans-69"/>
      <use x="146.386719" xlink:href="#DejaVuSans-64"/>
      <use x="209.863281" xlink:href="#DejaVuSans-20"/>
      <use x="241.650391" xlink:href="#DejaVuSans-31"/>
      <use x="305.273438" xlink:href="#DejaVuSans-30"/>
      <use x="368.896484" xlink:href="#DejaVuSans-30"/>
      <use x="432.519531" xlink:href="#DejaVuSans-78"/>
      <use x="491.699219" xlink:href="#DejaVuSans-31"/>
      <use x="555.322266" xlink:href="#DejaVuSans-30"/>
      <use x="618.945312" xlink:href="#DejaVuSans-30"/>
     </g>
    </g>
    <g id="line2d_23">
     <path d="M 148.474928 75.952697 
L 162.354928 75.952697 
" style="fill:none;stroke:#ff7f0e;stroke-linecap:square;stroke-width:1.5;"/>
    </g>
    <g id="line2d_24">
     <g>
      <use style="fill:#ff7f0e;stroke:#ff7f0e;" x="155.414928" xlink:href="#m2765cb3295" y="75.952697"/>
     </g>
    </g>
    <g id="text_13">
     <!-- Grid 600x600 -->
     <defs>
      <path d="M 33.015625 40.375 
Q 26.375 40.375 22.484375 35.828125 
Q 18.609375 31.296875 18.609375 23.390625 
Q 18.609375 15.53125 22.484375 10.953125 
Q 26.375 6.390625 33.015625 6.390625 
Q 39.65625 6.390625 43.53125 10.953125 
Q 47.40625 15.53125 47.40625 23.390625 
Q 47.40625 31.296875 43.53125 35.828125 
Q 39.65625 40.375 33.015625 40.375 
z
M 52.59375 71.296875 
L 52.59375 62.3125 
Q 48.875 64.0625 45.09375 64.984375 
Q 41.3125 65.921875 37.59375 65.921875 
Q 27.828125 65.921875 22.671875 59.328125 
Q 17.53125 52.734375 16.796875 39.40625 
Q 19.671875 43.65625 24.015625 45.921875 
Q 28.375 48.1875 33.59375 48.1875 
Q 44.578125 48.1875 50.953125 41.515625 
Q 57.328125 34.859375 57.328125 23.390625 
Q 57.328125 12.15625 50.6875 5.359375 
Q 44.046875 -1.421875 33.015625 -1.421875 
Q 20.359375 -1.421875 13.671875 8.265625 
Q 6.984375 17.96875 6.984375 36.375 
Q 6.984375 53.65625 15.1875 63.9375 
Q 23.390625 74.21875 37.203125 74.21875 
Q 40.921875 74.21875 44.703125 73.484375 
Q 48.484375 72.75 52.59375 71.296875 
z
" id="DejaVuSans-36"/>
     </defs>
     <g transform="translate(167.906928 78.381697)scale(0.0694 -0.0694)">
      <use xlink:href="#DejaVuSans-47"/>
      <use x="77.490234" xlink:href="#DejaVuSans-72"/>
      <use x="118.603516" xlink:href="#DejaVuSans-69"/>
      <use x="146.386719" xlink:href="#DejaVuSans-64"/>
      <use x="209.863281" xlink:href="#DejaVuSans-20"/>
      <use x="241.650391" xlink:href="#DejaVuSans-36"/>
      <use x="305.273438" xlink:href="#DejaVuSans-30"/>
      <use x="368.896484" xlink:href="#DejaVuSans-30"/>
      <use x="432.519531" xlink:href="#DejaVuSans-78"/>
      <use x="491.699219" xlink:href="#DejaVuSans-36"/>
      <use x="555.322266" xlink:href="#DejaVuSans-30"/>
      <use x="618.945312" xlink:href="#DejaVuSans-30"/>
     </g>
    </g>
    <g id="line2d_25">
     <path d="M 148.474928 86.139316 
L 162.354928 86.139316 
" style="fill:none;stroke:#2ca02c;stroke-linecap:square;stroke-width:1.5;"/>
    </g>
    <g id="line2d_26">
     <g>
      <use style="fill:#2ca02c;stroke:#2ca02c;" x="155.414928" xlink:href="#m92f2b94504" y="86.139316"/>
     </g>
    </g>
    <g id="text_14">
     <!-- Grid 1000x1000 -->
     <g transform="translate(167.906928 88.568316)scale(0.0694 -0.0694)">
      <use xlink:href="#DejaVuSans-47"/>
      <use x="77.490234" xlink:href="#DejaVuSans-72"/>
      <use x="118.603516" xlink:href="#DejaVuSans-69"/>
      <use x="146.386719" xlink:href="#DejaVuSans-64"/>
      <use x="209.863281" xlink:href="#DejaVuSans-20"/>
      <use x="241.650391" xlink:href="#DejaVuSans-31"/>
      <use x="305.273438" xlink:href="#DejaVuSans-30"/>
      <use x="368.896484" xlink:href="#DejaVuSans-30"/>
      <use x="432.519531" xlink:href="#DejaVuSans-30"/>
      <use x="496.142578" xlink:href="#DejaVuSans-78"/>
      <use x="555.322266" xlink:href="#DejaVuSans-31"/>
      <use x="618.945312" xlink:href="#DejaVuSans-30"/>
      <use x="682.568359" xlink:href="#DejaVuSans-30"/>
      <use x="746.191406" xlink:href="#DejaVuSans-30"/>
     </g>
    </g>
    <g id="line2d_27">
     <path d="M 148.474928 96.325934 
L 162.354928 96.325934 
" style="fill:none;stroke:#d62728;stroke-linecap:square;stroke-width:1.5;"/>
    </g>
    <g id="line2d_28">
     <g>
      <use style="fill:#d62728;stroke:#d62728;" x="155.414928" xlink:href="#m649b630512" y="96.325934"/>
     </g>
    </g>
    <g id="text_15">
     <!-- Grid 1500x1500 -->
     <g transform="translate(167.906928 98.754934)scale(0.0694 -0.0694)">
      <use xlink:href="#DejaVuSans-47"/>
      <use x="77.490234" xlink:href="#DejaVuSans-72"/>
      <use x="118.603516" xlink:href="#DejaVuSans-69"/>
      <use x="146.386719" xlink:href="#DejaVuSans-64"/>
      <use x="209.863281" xlink:href="#DejaVuSans-20"/>
      <use x="241.650391" xlink:href="#DejaVuSans-31"/>
      <use x="305.273438" xlink:href="#DejaVuSans-35"/>
      <use x="368.896484" xlink:href="#DejaVuSans-30"/>
      <use x="432.519531" xlink:href="#DejaVuSans-30"/>
      <use x="496.142578" xlink:href="#DejaVuSans-78"/>
      <use x="555.322266" xlink:href="#DejaVuSans-31"/>
      <use x="618.945312" xlink:href="#DejaVuSans-35"/>
      <use x="682.568359" xlink:href="#DejaVuSans-30"/>
      <use x="746.191406" xlink:href="#DejaVuSans-30"/>
     </g>
    </g>
   </g>
  </g>
  <g id="axes_2">
   <g id="patch_8">
    <path d="M 271.145 136.24 
L 447.48 136.24 
L 447.48 26.88 
L 271.145 26.88 
z
" style="fill:#ffffff;"/>
   </g>
   <g id="matplotlib.axis_3">
    <g id="xtick_6">
     <g id="line2d_29">
      <path clip-path="url(#p8960ae0283)" d="M 270.723146 136.24 
L 270.723146 26.88 
" style="fill:none;stroke:#b0b0b0;stroke-linecap:square;stroke-width:0.8;"/>
     </g>
     <g id="line2d_30">
      <g>
       <use style="stroke:#000000;stroke-width:0.8;" x="270.723146" xlink:href="#m729e080e46" y="136.24"/>
      </g>
     </g>
     <g id="text_16">
      <!-- 0 -->
      <g transform="translate(267.541896 150.838437)scale(0.1 -0.1)">
       <use xlink:href="#DejaVuSans-30"/>
      </g>
     </g>
    </g>
    <g id="xtick_7">
     <g id="line2d_31">
      <path clip-path="url(#p8960ae0283)" d="M 312.908553 136.24 
L 312.908553 26.88 
" style="fill:none;stroke:#b0b0b0;stroke-linecap:square;stroke-width:0.8;"/>
     </g>
     <g id="line2d_32">
      <g>
       <use style="stroke:#000000;stroke-width:0.8;" x="312.908553" xlink:href="#m729e080e46" y="136.24"/>
      </g>
     </g>
     <g id="text_17">
      <!-- 5 -->
      <g transform="translate(309.727303 150.838437)scale(0.1 -0.1)">
       <use xlink:href="#DejaVuSans-35"/>
      </g>
     </g>
    </g>
    <g id="xtick_8">
     <g id="line2d_33">
      <path clip-path="url(#p8960ae0283)" d="M 355.093959 136.24 
L 355.093959 26.88 
" style="fill:none;stroke:#b0b0b0;stroke-linecap:square;stroke-width:0.8;"/>
     </g>
     <g id="line2d_34">
      <g>
       <use style="stroke:#000000;stroke-width:0.8;" x="355.093959" xlink:href="#m729e080e46" y="136.24"/>
      </g>
     </g>
     <g id="text_18">
      <!-- 10 -->
      <g transform="translate(348.731459 150.838437)scale(0.1 -0.1)">
       <use xlink:href="#DejaVuSans-31"/>
       <use x="63.623047" xlink:href="#DejaVuSans-30"/>
      </g>
     </g>
    </g>
    <g id="xtick_9">
     <g id="line2d_35">
      <path clip-path="url(#p8960ae0283)" d="M 397.279366 136.24 
L 397.279366 26.88 
" style="fill:none;stroke:#b0b0b0;stroke-linecap:square;stroke-width:0.8;"/>
     </g>
     <g id="line2d_36">
      <g>
       <use style="stroke:#000000;stroke-width:0.8;" x="397.279366" xlink:href="#m729e080e46" y="136.24"/>
      </g>
     </g>
     <g id="text_19">
      <!-- 15 -->
      <g transform="translate(390.916866 150.838437)scale(0.1 -0.1)">
       <use xlink:href="#DejaVuSans-31"/>
       <use x="63.623047" xlink:href="#DejaVuSans-35"/>
      </g>
     </g>
    </g>
    <g id="xtick_10">
     <g id="line2d_37">
      <path clip-path="url(#p8960ae0283)" d="M 439.464773 136.24 
L 439.464773 26.88 
" style="fill:none;stroke:#b0b0b0;stroke-linecap:square;stroke-width:0.8;"/>
     </g>
     <g id="line2d_38">
      <g>
       <use style="stroke:#000000;stroke-width:0.8;" x="439.464773" xlink:href="#m729e080e46" y="136.24"/>
      </g>
     </g>
     <g id="text_20">
      <!-- 20 -->
      <g transform="translate(433.102273 150.838437)scale(0.1 -0.1)">
       <use xlink:href="#DejaVuSans-32"/>
       <use x="63.623047" xlink:href="#DejaVuSans-30"/>
      </g>
     </g>
    </g>
    <g id="text_21">
     <!-- threads -->
     <g transform="translate(340.210156 164.516562)scale(0.1 -0.1)">
      <use xlink:href="#DejaVuSans-74"/>
      <use x="39.208984" xlink:href="#DejaVuSans-68"/>
      <use x="102.587891" xlink:href="#DejaVuSans-72"/>
      <use x="143.669922" xlink:href="#DejaVuSans-65"/>
      <use x="205.193359" xlink:href="#DejaVuSans-61"/>
      <use x="266.472656" xlink:href="#DejaVuSans-64"/>
      <use x="329.949219" xlink:href="#DejaVuSans-73"/>
     </g>
    </g>
   </g>
   <g id="matplotlib.axis_4">
    <g id="ytick_4">
     <g id="line2d_39">
      <path clip-path="url(#p8960ae0283)" d="M 271.145 104.309485 
L 447.48 104.309485 
" style="fill:none;stroke:#b0b0b0;stroke-linecap:square;stroke-width:0.8;"/>
     </g>
     <g id="line2d_40">
      <g>
       <use style="stroke:#000000;stroke-width:0.8;" x="271.145" xlink:href="#mffe5a48af4" y="104.309485"/>
      </g>
     </g>
     <g id="text_22">
      <!-- 2 -->
      <g transform="translate(257.7825 108.108704)scale(0.1 -0.1)">
       <use xlink:href="#DejaVuSans-32"/>
      </g>
     </g>
    </g>
    <g id="ytick_5">
     <g id="line2d_41">
      <path clip-path="url(#p8960ae0283)" d="M 271.145 67.910079 
L 447.48 67.910079 
" style="fill:none;stroke:#b0b0b0;stroke-linecap:square;stroke-width:0.8;"/>
     </g>
     <g id="line2d_42">
      <g>
       <use style="stroke:#000000;stroke-width:0.8;" x="271.145" xlink:href="#mffe5a48af4" y="67.910079"/>
      </g>
     </g>
     <g id="text_23">
      <!-- 4 -->
      <g transform="translate(257.7825 71.709298)scale(0.1 -0.1)">
       <use xlink:href="#DejaVuSans-34"/>
      </g>
     </g>
    </g>
    <g id="ytick_6">
     <g id="line2d_43">
      <path clip-path="url(#p8960ae0283)" d="M 271.145 31.510674 
L 447.48 31.510674 
" style="fill:none;stroke:#b0b0b0;stroke-linecap:square;stroke-width:0.8;"/>
     </g>
     <g id="line2d_44">
      <g>
       <use style="stroke:#000000;stroke-width:0.8;" x="271.145" xlink:href="#mffe5a48af4" y="31.510674"/>
      </g>
     </g>
     <g id="text_24">
      <!-- 6 -->
      <g transform="translate(257.7825 35.309893)scale(0.1 -0.1)">
       <use xlink:href="#DejaVuSans-36"/>
      </g>
     </g>
    </g>
    <g id="text_25">
     <!-- acceleration -->
     <defs>
      <path d="M 48.78125 52.59375 
L 48.78125 44.1875 
Q 44.96875 46.296875 41.140625 47.34375 
Q 37.3125 48.390625 33.40625 48.390625 
Q 24.65625 48.390625 19.8125 42.84375 
Q 14.984375 37.3125 14.984375 27.296875 
Q 14.984375 17.28125 19.8125 11.734375 
Q 24.65625 6.203125 33.40625 6.203125 
Q 37.3125 6.203125 41.140625 7.25 
Q 44.96875 8.296875 48.78125 10.40625 
L 48.78125 2.09375 
Q 45.015625 0.34375 40.984375 -0.53125 
Q 36.96875 -1.421875 32.421875 -1.421875 
Q 20.0625 -1.421875 12.78125 6.34375 
Q 5.515625 14.109375 5.515625 27.296875 
Q 5.515625 40.671875 12.859375 48.328125 
Q 20.21875 56 33.015625 56 
Q 37.15625 56 41.109375 55.140625 
Q 45.0625 54.296875 48.78125 52.59375 
z
" id="DejaVuSans-63"/>
      <path d="M 9.421875 75.984375 
L 18.40625 75.984375 
L 18.40625 0 
L 9.421875 0 
z
" id="DejaVuSans-6c"/>
      <path d="M 30.609375 48.390625 
Q 23.390625 48.390625 19.1875 42.75 
Q 14.984375 37.109375 14.984375 27.296875 
Q 14.984375 17.484375 19.15625 11.84375 
Q 23.34375 6.203125 30.609375 6.203125 
Q 37.796875 6.203125 41.984375 11.859375 
Q 46.1875 17.53125 46.1875 27.296875 
Q 46.1875 37.015625 41.984375 42.703125 
Q 37.796875 48.390625 30.609375 48.390625 
z
M 30.609375 56 
Q 42.328125 56 49.015625 48.375 
Q 55.71875 40.765625 55.71875 27.296875 
Q 55.71875 13.875 49.015625 6.21875 
Q 42.328125 -1.421875 30.609375 -1.421875 
Q 18.84375 -1.421875 12.171875 6.21875 
Q 5.515625 13.875 5.515625 27.296875 
Q 5.515625 40.765625 12.171875 48.375 
Q 18.84375 56 30.609375 56 
z
" id="DejaVuSans-6f"/>
     </defs>
     <g transform="translate(251.702812 112.361562)rotate(-90)scale(0.1 -0.1)">
      <use xlink:href="#DejaVuSans-61"/>
      <use x="61.279297" xlink:href="#DejaVuSans-63"/>
      <use x="116.259766" xlink:href="#DejaVuSans-63"/>
      <use x="171.240234" xlink:href="#DejaVuSans-65"/>
      <use x="232.763672" xlink:href="#DejaVuSans-6c"/>
      <use x="260.546875" xlink:href="#DejaVuSans-65"/>
      <use x="322.070312" xlink:href="#DejaVuSans-72"/>
      <use x="363.183594" xlink:href="#DejaVuSans-61"/>
      <use x="424.462891" xlink:href="#DejaVuSans-74"/>
      <use x="463.671875" xlink:href="#DejaVuSans-69"/>
      <use x="491.455078" xlink:href="#DejaVuSans-6f"/>
      <use x="552.636719" xlink:href="#DejaVuSans-6e"/>
     </g>
    </g>
   </g>
   <g id="line2d_45">
    <path clip-path="url(#p8960ae0283)" d="M 279.160227 122.470338 
L 287.597309 127.132887 
L 304.471471 124.800918 
L 338.219797 127.015176 
L 355.093959 127.646598 
L 422.59061 130.681254 
L 439.464773 131.269091 
" style="fill:none;stroke:#1f77b4;stroke-linecap:square;stroke-width:1.5;"/>
    <g clip-path="url(#p8960ae0283)">
     <use style="fill:#1f77b4;stroke:#1f77b4;" x="279.160227" xlink:href="#mb24498c08b" y="122.470338"/>
     <use style="fill:#1f77b4;stroke:#1f77b4;" x="287.597309" xlink:href="#mb24498c08b" y="127.132887"/>
     <use style="fill:#1f77b4;stroke:#1f77b4;" x="304.471471" xlink:href="#mb24498c08b" y="124.800918"/>
     <use style="fill:#1f77b4;stroke:#1f77b4;" x="338.219797" xlink:href="#mb24498c08b" y="127.015176"/>
     <use style="fill:#1f77b4;stroke:#1f77b4;" x="355.093959" xlink:href="#mb24498c08b" y="127.646598"/>
     <use style="fill:#1f77b4;stroke:#1f77b4;" x="422.59061" xlink:href="#mb24498c08b" y="130.681254"/>
     <use style="fill:#1f77b4;stroke:#1f77b4;" x="439.464773" xlink:href="#mb24498c08b" y="131.269091"/>
    </g>
   </g>
   <g id="line2d_46">
    <path clip-path="url(#p8960ae0283)" d="M 279.160227 122.509206 
L 287.597309 111.560728 
L 304.471471 99.743972 
L 338.219797 92.542763 
L 355.093959 91.64212 
L 422.59061 100.223339 
L 439.464773 103.913732 
" style="fill:none;stroke:#ff7f0e;stroke-linecap:square;stroke-width:1.5;"/>
    <g clip-path="url(#p8960ae0283)">
     <use style="fill:#ff7f0e;stroke:#ff7f0e;" x="279.160227" xlink:href="#m2765cb3295" y="122.509206"/>
     <use style="fill:#ff7f0e;stroke:#ff7f0e;" x="287.597309" xlink:href="#m2765cb3295" y="111.560728"/>
     <use style="fill:#ff7f0e;stroke:#ff7f0e;" x="304.471471" xlink:href="#m2765cb3295" y="99.743972"/>
     <use style="fill:#ff7f0e;stroke:#ff7f0e;" x="338.219797" xlink:href="#m2765cb3295" y="92.542763"/>
     <use style="fill:#ff7f0e;stroke:#ff7f0e;" x="355.093959" xlink:href="#m2765cb3295" y="91.64212"/>
     <use style="fill:#ff7f0e;stroke:#ff7f0e;" x="422.59061" xlink:href="#m2765cb3295" y="100.223339"/>
     <use style="fill:#ff7f0e;stroke:#ff7f0e;" x="439.464773" xlink:href="#m2765cb3295" y="103.913732"/>
    </g>
   </g>
   <g id="line2d_47">
    <path clip-path="url(#p8960ae0283)" d="M 279.160227 122.509567 
L 287.597309 108.303664 
L 304.471471 89.607231 
L 338.219797 76.516899 
L 355.093959 70.887646 
L 422.59061 72.935736 
L 439.464773 79.256566 
" style="fill:none;stroke:#2ca02c;stroke-linecap:square;stroke-width:1.5;"/>
    <g clip-path="url(#p8960ae0283)">
     <use style="fill:#2ca02c;stroke:#2ca02c;" x="279.160227" xlink:href="#m92f2b94504" y="122.509567"/>
     <use style="fill:#2ca02c;stroke:#2ca02c;" x="287.597309" xlink:href="#m92f2b94504" y="108.303664"/>
     <use style="fill:#2ca02c;stroke:#2ca02c;" x="304.471471" xlink:href="#m92f2b94504" y="89.607231"/>
     <use style="fill:#2ca02c;stroke:#2ca02c;" x="338.219797" xlink:href="#m92f2b94504" y="76.516899"/>
     <use style="fill:#2ca02c;stroke:#2ca02c;" x="355.093959" xlink:href="#m92f2b94504" y="70.887646"/>
     <use style="fill:#2ca02c;stroke:#2ca02c;" x="422.59061" xlink:href="#m92f2b94504" y="72.935736"/>
     <use style="fill:#2ca02c;stroke:#2ca02c;" x="439.464773" xlink:href="#m92f2b94504" y="79.256566"/>
    </g>
   </g>
   <g id="line2d_48">
    <path clip-path="url(#p8960ae0283)" d="M 279.160227 122.509276 
L 287.597309 99.337013 
L 304.471471 69.723856 
L 338.219797 42.575152 
L 355.093959 31.850909 
L 422.59061 37.564201 
L 439.464773 34.519743 
" style="fill:none;stroke:#d62728;stroke-linecap:square;stroke-width:1.5;"/>
    <g clip-path="url(#p8960ae0283)">
     <use style="fill:#d62728;stroke:#d62728;" x="279.160227" xlink:href="#m649b630512" y="122.509276"/>
     <use style="fill:#d62728;stroke:#d62728;" x="287.597309" xlink:href="#m649b630512" y="99.337013"/>
     <use style="fill:#d62728;stroke:#d62728;" x="304.471471" xlink:href="#m649b630512" y="69.723856"/>
     <use style="fill:#d62728;stroke:#d62728;" x="338.219797" xlink:href="#m649b630512" y="42.575152"/>
     <use style="fill:#d62728;stroke:#d62728;" x="355.093959" xlink:href="#m649b630512" y="31.850909"/>
     <use style="fill:#d62728;stroke:#d62728;" x="422.59061" xlink:href="#m649b630512" y="37.564201"/>
     <use style="fill:#d62728;stroke:#d62728;" x="439.464773" xlink:href="#m649b630512" y="34.519743"/>
    </g>
   </g>
   <g id="patch_9">
    <path d="M 271.145 136.24 
L 271.145 26.88 
" style="fill:none;stroke:#000000;stroke-linecap:square;stroke-linejoin:miter;stroke-width:0.8;"/>
   </g>
   <g id="patch_10">
    <path d="M 447.48 136.24 
L 447.48 26.88 
" style="fill:none;stroke:#000000;stroke-linecap:square;stroke-linejoin:miter;stroke-width:0.8;"/>
   </g>
   <g id="patch_11">
    <path d="M 271.145 136.24 
L 447.48 136.24 
" style="fill:none;stroke:#000000;stroke-linecap:square;stroke-linejoin:miter;stroke-width:0.8;"/>
   </g>
   <g id="patch_12">
    <path d="M 271.145 26.88 
L 447.48 26.88 
" style="fill:none;stroke:#000000;stroke-linecap:square;stroke-linejoin:miter;stroke-width:0.8;"/>
   </g>
   <g id="text_26">
    <!-- Acceleration -->
    <defs>
     <path d="M 34.1875 63.1875 
L 20.796875 26.90625 
L 47.609375 26.90625 
z
M 28.609375 72.90625 
L 39.796875 72.90625 
L 67.578125 0 
L 57.328125 0 
L 50.6875 18.703125 
L 17.828125 18.703125 
L 11.1875 0 
L 0.78125 0 
z
" id="DejaVuSans-41"/>
    </defs>
    <g transform="translate(321.924062 20.88)scale(0.12 -0.12)">
     <use xlink:href="#DejaVuSans-41"/>
     <use x="68.392578" xlink:href="#DejaVuSans-63"/>
     <use x="123.373047" xlink:href="#DejaVuSans-63"/>
     <use x="178.353516" xlink:href="#DejaVuSans-65"/>
     <use x="239.876953" xlink:href="#DejaVuSans-6c"/>
     <use x="267.660156" xlink:href="#DejaVuSans-65"/>
     <use x="329.183594" xlink:href="#DejaVuSans-72"/>
     <use x="370.296875" xlink:href="#DejaVuSans-61"/>
     <use x="431.576172" xlink:href="#DejaVuSans-74"/>
     <use x="470.785156" xlink:href="#DejaVuSans-69"/>
     <use x="498.568359" xlink:href="#DejaVuSans-6f"/>
     <use x="559.75" xlink:href="#DejaVuSans-6e"/>
    </g>
   </g>
   <g id="legend_2">
    <g id="patch_13">
     <path d="M 276.003 73.178475 
L 354.413072 73.178475 
Q 355.801072 73.178475 355.801072 71.790475 
L 355.801072 31.738 
Q 355.801072 30.35 354.413072 30.35 
L 276.003 30.35 
Q 274.615 30.35 274.615 31.738 
L 274.615 71.790475 
Q 274.615 73.178475 276.003 73.178475 
z
" style="fill:#ffffff;opacity:0.8;stroke:#cccccc;stroke-linejoin:miter;"/>
    </g>
    <g id="line2d_49">
     <path d="M 277.391 35.970316 
L 291.271 35.970316 
" style="fill:none;stroke:#1f77b4;stroke-linecap:square;stroke-width:1.5;"/>
    </g>
    <g id="line2d_50">
     <g>
      <use style="fill:#1f77b4;stroke:#1f77b4;" x="284.331" xlink:href="#mb24498c08b" y="35.970316"/>
     </g>
    </g>
    <g id="text_27">
     <!-- Grid 100x100 -->
     <g transform="translate(296.823 38.399316)scale(0.0694 -0.0694)">
      <use xlink:href="#DejaVuSans-47"/>
      <use x="77.490234" xlink:href="#DejaVuSans-72"/>
      <use x="118.603516" xlink:href="#DejaVuSans-69"/>
      <use x="146.386719" xlink:href="#DejaVuSans-64"/>
      <use x="209.863281" xlink:href="#DejaVuSans-20"/>
      <use x="241.650391" xlink:href="#DejaVuSans-31"/>
      <use x="305.273438" xlink:href="#DejaVuSans-30"/>
      <use x="368.896484" xlink:href="#DejaVuSans-30"/>
      <use x="432.519531" xlink:href="#DejaVuSans-78"/>
      <use x="491.699219" xlink:href="#DejaVuSans-31"/>
      <use x="555.322266" xlink:href="#DejaVuSans-30"/>
      <use x="618.945312" xlink:href="#DejaVuSans-30"/>
     </g>
    </g>
    <g id="line2d_51">
     <path d="M 277.391 46.156934 
L 291.271 46.156934 
" style="fill:none;stroke:#ff7f0e;stroke-linecap:square;stroke-width:1.5;"/>
    </g>
    <g id="line2d_52">
     <g>
      <use style="fill:#ff7f0e;stroke:#ff7f0e;" x="284.331" xlink:href="#m2765cb3295" y="46.156934"/>
     </g>
    </g>
    <g id="text_28">
     <!-- Grid 600x600 -->
     <g transform="translate(296.823 48.585934)scale(0.0694 -0.0694)">
      <use xlink:href="#DejaVuSans-47"/>
      <use x="77.490234" xlink:href="#DejaVuSans-72"/>
      <use x="118.603516" xlink:href="#DejaVuSans-69"/>
      <use x="146.386719" xlink:href="#DejaVuSans-64"/>
      <use x="209.863281" xlink:href="#DejaVuSans-20"/>
      <use x="241.650391" xlink:href="#DejaVuSans-36"/>
      <use x="305.273438" xlink:href="#DejaVuSans-30"/>
      <use x="368.896484" xlink:href="#DejaVuSans-30"/>
      <use x="432.519531" xlink:href="#DejaVuSans-78"/>
      <use x="491.699219" xlink:href="#DejaVuSans-36"/>
      <use x="555.322266" xlink:href="#DejaVuSans-30"/>
      <use x="618.945312" xlink:href="#DejaVuSans-30"/>
     </g>
    </g>
    <g id="line2d_53">
     <path d="M 277.391 56.343553 
L 291.271 56.343553 
" style="fill:none;stroke:#2ca02c;stroke-linecap:square;stroke-width:1.5;"/>
    </g>
    <g id="line2d_54">
     <g>
      <use style="fill:#2ca02c;stroke:#2ca02c;" x="284.331" xlink:href="#m92f2b94504" y="56.343553"/>
     </g>
    </g>
    <g id="text_29">
     <!-- Grid 1000x1000 -->
     <g transform="translate(296.823 58.772553)scale(0.0694 -0.0694)">
      <use xlink:href="#DejaVuSans-47"/>
      <use x="77.490234" xlink:href="#DejaVuSans-72"/>
      <use x="118.603516" xlink:href="#DejaVuSans-69"/>
      <use x="146.386719" xlink:href="#DejaVuSans-64"/>
      <use x="209.863281" xlink:href="#DejaVuSans-20"/>
      <use x="241.650391" xlink:href="#DejaVuSans-31"/>
      <use x="305.273438" xlink:href="#DejaVuSans-30"/>
      <use x="368.896484" xlink:href="#DejaVuSans-30"/>
      <use x="432.519531" xlink:href="#DejaVuSans-30"/>
      <use x="496.142578" xlink:href="#DejaVuSans-78"/>
      <use x="555.322266" xlink:href="#DejaVuSans-31"/>
      <use x="618.945312" xlink:href="#DejaVuSans-30"/>
      <use x="682.568359" xlink:href="#DejaVuSans-30"/>
      <use x="746.191406" xlink:href="#DejaVuSans-30"/>
     </g>
    </g>
    <g id="line2d_55">
     <path d="M 277.391 66.530172 
L 291.271 66.530172 
" style="fill:none;stroke:#d62728;stroke-linecap:square;stroke-width:1.5;"/>
    </g>
    <g id="line2d_56">
     <g>
      <use style="fill:#d62728;stroke:#d62728;" x="284.331" xlink:href="#m649b630512" y="66.530172"/>
     </g>
    </g>
    <g id="text_30">
     <!-- Grid 1500x1500 -->
     <g transform="translate(296.823 68.959172)scale(0.0694 -0.0694)">
      <use xlink:href="#DejaVuSans-47"/>
      <use x="77.490234" xlink:href="#DejaVuSans-72"/>
      <use x="118.603516" xlink:href="#DejaVuSans-69"/>
      <use x="146.386719" xlink:href="#DejaVuSans-64"/>
      <use x="209.863281" xlink:href="#DejaVuSans-20"/>
      <use x="241.650391" xlink:href="#DejaVuSans-31"/>
      <use x="305.273438" xlink:href="#DejaVuSans-35"/>
      <use x="368.896484" xlink:href="#DejaVuSans-30"/>
      <use x="432.519531" xlink:href="#DejaVuSans-30"/>
      <use x="496.142578" xlink:href="#DejaVuSans-78"/>
      <use x="555.322266" xlink:href="#DejaVuSans-31"/>
      <use x="618.945312" xlink:href="#DejaVuSans-35"/>
      <use x="682.568359" xlink:href="#DejaVuSans-30"/>
      <use x="746.191406" xlink:href="#DejaVuSans-30"/>
     </g>
    </g>
   </g>
  </g>
  <g id="axes_3">
   <g id="patch_14">
    <path d="M 54.02 303.64 
L 230.355 303.64 
L 230.355 194.28 
L 54.02 194.28 
z
" style="fill:#ffffff;"/>
   </g>
   <g id="matplotlib.axis_5">
    <g id="xtick_11">
     <g id="line2d_57">
      <path clip-path="url(#p134ddfc3e0)" d="M 53.598146 303.64 
L 53.598146 194.28 
" style="fill:none;stroke:#b0b0b0;stroke-linecap:square;stroke-width:0.8;"/>
     </g>
     <g id="line2d_58">
      <g>
       <use style="stroke:#000000;stroke-width:0.8;" x="53.598146" xlink:href="#m729e080e46" y="303.64"/>
      </g>
     </g>
     <g id="text_31">
      <!-- 0 -->
      <g transform="translate(50.416896 318.238438)scale(0.1 -0.1)">
       <use xlink:href="#DejaVuSans-30"/>
      </g>
     </g>
    </g>
    <g id="xtick_12">
     <g id="line2d_59">
      <path clip-path="url(#p134ddfc3e0)" d="M 95.783553 303.64 
L 95.783553 194.28 
" style="fill:none;stroke:#b0b0b0;stroke-linecap:square;stroke-width:0.8;"/>
     </g>
     <g id="line2d_60">
      <g>
       <use style="stroke:#000000;stroke-width:0.8;" x="95.783553" xlink:href="#m729e080e46" y="303.64"/>
      </g>
     </g>
     <g id="text_32">
      <!-- 5 -->
      <g transform="translate(92.602303 318.238438)scale(0.1 -0.1)">
       <use xlink:href="#DejaVuSans-35"/>
      </g>
     </g>
    </g>
    <g id="xtick_13">
     <g id="line2d_61">
      <path clip-path="url(#p134ddfc3e0)" d="M 137.968959 303.64 
L 137.968959 194.28 
" style="fill:none;stroke:#b0b0b0;stroke-linecap:square;stroke-width:0.8;"/>
     </g>
     <g id="line2d_62">
      <g>
       <use style="stroke:#000000;stroke-width:0.8;" x="137.968959" xlink:href="#m729e080e46" y="303.64"/>
      </g>
     </g>
     <g id="text_33">
      <!-- 10 -->
      <g transform="translate(131.606459 318.238438)scale(0.1 -0.1)">
       <use xlink:href="#DejaVuSans-31"/>
       <use x="63.623047" xlink:href="#DejaVuSans-30"/>
      </g>
     </g>
    </g>
    <g id="xtick_14">
     <g id="line2d_63">
      <path clip-path="url(#p134ddfc3e0)" d="M 180.154366 303.64 
L 180.154366 194.28 
" style="fill:none;stroke:#b0b0b0;stroke-linecap:square;stroke-width:0.8;"/>
     </g>
     <g id="line2d_64">
      <g>
       <use style="stroke:#000000;stroke-width:0.8;" x="180.154366" xlink:href="#m729e080e46" y="303.64"/>
      </g>
     </g>
     <g id="text_34">
      <!-- 15 -->
      <g transform="translate(173.791866 318.238438)scale(0.1 -0.1)">
       <use xlink:href="#DejaVuSans-31"/>
       <use x="63.623047" xlink:href="#DejaVuSans-35"/>
      </g>
     </g>
    </g>
    <g id="xtick_15">
     <g id="line2d_65">
      <path clip-path="url(#p134ddfc3e0)" d="M 222.339773 303.64 
L 222.339773 194.28 
" style="fill:none;stroke:#b0b0b0;stroke-linecap:square;stroke-width:0.8;"/>
     </g>
     <g id="line2d_66">
      <g>
       <use style="stroke:#000000;stroke-width:0.8;" x="222.339773" xlink:href="#m729e080e46" y="303.64"/>
      </g>
     </g>
     <g id="text_35">
      <!-- 20 -->
      <g transform="translate(215.977273 318.238438)scale(0.1 -0.1)">
       <use xlink:href="#DejaVuSans-32"/>
       <use x="63.623047" xlink:href="#DejaVuSans-30"/>
      </g>
     </g>
    </g>
    <g id="text_36">
     <!-- threads -->
     <g transform="translate(123.085156 331.916562)scale(0.1 -0.1)">
      <use xlink:href="#DejaVuSans-74"/>
      <use x="39.208984" xlink:href="#DejaVuSans-68"/>
      <use x="102.587891" xlink:href="#DejaVuSans-72"/>
      <use x="143.669922" xlink:href="#DejaVuSans-65"/>
      <use x="205.193359" xlink:href="#DejaVuSans-61"/>
      <use x="266.472656" xlink:href="#DejaVuSans-64"/>
      <use x="329.949219" xlink:href="#DejaVuSans-73"/>
     </g>
    </g>
   </g>
   <g id="matplotlib.axis_6">
    <g id="ytick_7">
     <g id="line2d_67">
      <path clip-path="url(#p134ddfc3e0)" d="M 54.02 300.990477 
L 230.355 300.990477 
" style="fill:none;stroke:#b0b0b0;stroke-linecap:square;stroke-width:0.8;"/>
     </g>
     <g id="line2d_68">
      <g>
       <use style="stroke:#000000;stroke-width:0.8;" x="54.02" xlink:href="#mffe5a48af4" y="300.990477"/>
      </g>
     </g>
     <g id="text_37">
      <!-- 0.00 -->
      <defs>
       <path d="M 10.6875 12.40625 
L 21 12.40625 
L 21 0 
L 10.6875 0 
z
" id="DejaVuSans-2e"/>
      </defs>
      <g transform="translate(24.754375 304.789696)scale(0.1 -0.1)">
       <use xlink:href="#DejaVuSans-30"/>
       <use x="63.623047" xlink:href="#DejaVuSans-2e"/>
       <use x="95.410156" xlink:href="#DejaVuSans-30"/>
       <use x="159.033203" xlink:href="#DejaVuSans-30"/>
      </g>
     </g>
    </g>
    <g id="ytick_8">
     <g id="line2d_69">
      <path clip-path="url(#p134ddfc3e0)" d="M 54.02 278.612596 
L 230.355 278.612596 
" style="fill:none;stroke:#b0b0b0;stroke-linecap:square;stroke-width:0.8;"/>
     </g>
     <g id="line2d_70">
      <g>
       <use style="stroke:#000000;stroke-width:0.8;" x="54.02" xlink:href="#mffe5a48af4" y="278.612596"/>
      </g>
     </g>
     <g id="text_38">
      <!-- 0.25 -->
      <g transform="translate(24.754375 282.411815)scale(0.1 -0.1)">
       <use xlink:href="#DejaVuSans-30"/>
       <use x="63.623047" xlink:href="#DejaVuSans-2e"/>
       <use x="95.410156" xlink:href="#DejaVuSans-32"/>
       <use x="159.033203" xlink:href="#DejaVuSans-35"/>
      </g>
     </g>
    </g>
    <g id="ytick_9">
     <g id="line2d_71">
      <path clip-path="url(#p134ddfc3e0)" d="M 54.02 256.234715 
L 230.355 256.234715 
" style="fill:none;stroke:#b0b0b0;stroke-linecap:square;stroke-width:0.8;"/>
     </g>
     <g id="line2d_72">
      <g>
       <use style="stroke:#000000;stroke-width:0.8;" x="54.02" xlink:href="#mffe5a48af4" y="256.234715"/>
      </g>
     </g>
     <g id="text_39">
      <!-- 0.50 -->
      <g transform="translate(24.754375 260.033934)scale(0.1 -0.1)">
       <use xlink:href="#DejaVuSans-30"/>
       <use x="63.623047" xlink:href="#DejaVuSans-2e"/>
       <use x="95.410156" xlink:href="#DejaVuSans-35"/>
       <use x="159.033203" xlink:href="#DejaVuSans-30"/>
      </g>
     </g>
    </g>
    <g id="ytick_10">
     <g id="line2d_73">
      <path clip-path="url(#p134ddfc3e0)" d="M 54.02 233.856834 
L 230.355 233.856834 
" style="fill:none;stroke:#b0b0b0;stroke-linecap:square;stroke-width:0.8;"/>
     </g>
     <g id="line2d_74">
      <g>
       <use style="stroke:#000000;stroke-width:0.8;" x="54.02" xlink:href="#mffe5a48af4" y="233.856834"/>
      </g>
     </g>
     <g id="text_40">
      <!-- 0.75 -->
      <defs>
       <path d="M 8.203125 72.90625 
L 55.078125 72.90625 
L 55.078125 68.703125 
L 28.609375 0 
L 18.3125 0 
L 43.21875 64.59375 
L 8.203125 64.59375 
z
" id="DejaVuSans-37"/>
      </defs>
      <g transform="translate(24.754375 237.656052)scale(0.1 -0.1)">
       <use xlink:href="#DejaVuSans-30"/>
       <use x="63.623047" xlink:href="#DejaVuSans-2e"/>
       <use x="95.410156" xlink:href="#DejaVuSans-37"/>
       <use x="159.033203" xlink:href="#DejaVuSans-35"/>
      </g>
     </g>
    </g>
    <g id="ytick_11">
     <g id="line2d_75">
      <path clip-path="url(#p134ddfc3e0)" d="M 54.02 211.478952 
L 230.355 211.478952 
" style="fill:none;stroke:#b0b0b0;stroke-linecap:square;stroke-width:0.8;"/>
     </g>
     <g id="line2d_76">
      <g>
       <use style="stroke:#000000;stroke-width:0.8;" x="54.02" xlink:href="#mffe5a48af4" y="211.478952"/>
      </g>
     </g>
     <g id="text_41">
      <!-- 1.00 -->
      <g transform="translate(24.754375 215.278171)scale(0.1 -0.1)">
       <use xlink:href="#DejaVuSans-31"/>
       <use x="63.623047" xlink:href="#DejaVuSans-2e"/>
       <use x="95.410156" xlink:href="#DejaVuSans-30"/>
       <use x="159.033203" xlink:href="#DejaVuSans-30"/>
      </g>
     </g>
    </g>
    <g id="text_42">
     <!-- efficiency -->
     <defs>
      <path d="M 37.109375 75.984375 
L 37.109375 68.5 
L 28.515625 68.5 
Q 23.6875 68.5 21.796875 66.546875 
Q 19.921875 64.59375 19.921875 59.515625 
L 19.921875 54.6875 
L 34.71875 54.6875 
L 34.71875 47.703125 
L 19.921875 47.703125 
L 19.921875 0 
L 10.890625 0 
L 10.890625 47.703125 
L 2.296875 47.703125 
L 2.296875 54.6875 
L 10.890625 54.6875 
L 10.890625 58.5 
Q 10.890625 67.625 15.140625 71.796875 
Q 19.390625 75.984375 28.609375 75.984375 
z
" id="DejaVuSans-66"/>
      <path d="M 32.171875 -5.078125 
Q 28.375 -14.84375 24.75 -17.8125 
Q 21.140625 -20.796875 15.09375 -20.796875 
L 7.90625 -20.796875 
L 7.90625 -13.28125 
L 13.1875 -13.28125 
Q 16.890625 -13.28125 18.9375 -11.515625 
Q 21 -9.765625 23.484375 -3.21875 
L 25.09375 0.875 
L 2.984375 54.6875 
L 12.5 54.6875 
L 29.59375 11.921875 
L 46.6875 54.6875 
L 56.203125 54.6875 
z
" id="DejaVuSans-79"/>
     </defs>
     <g transform="translate(18.674688 273.038125)rotate(-90)scale(0.1 -0.1)">
      <use xlink:href="#DejaVuSans-65"/>
      <use x="61.523438" xlink:href="#DejaVuSans-66"/>
      <use x="96.728516" xlink:href="#DejaVuSans-66"/>
      <use x="131.933594" xlink:href="#DejaVuSans-69"/>
      <use x="159.716797" xlink:href="#DejaVuSans-63"/>
      <use x="214.697266" xlink:href="#DejaVuSans-69"/>
      <use x="242.480469" xlink:href="#DejaVuSans-65"/>
      <use x="304.003906" xlink:href="#DejaVuSans-6e"/>
      <use x="367.382812" xlink:href="#DejaVuSans-63"/>
      <use x="422.363281" xlink:href="#DejaVuSans-79"/>
     </g>
    </g>
   </g>
   <g id="line2d_77">
    <path clip-path="url(#p134ddfc3e0)" d="M 62.035227 211.287878 
L 70.472309 267.605077 
L 87.346471 281.430449 
L 121.094797 292.57176 
L 137.968959 294.566055 
L 205.46561 298.250539 
L 222.339773 298.669091 
" style="fill:none;stroke:#1f77b4;stroke-linecap:square;stroke-width:1.5;"/>
    <g clip-path="url(#p134ddfc3e0)">
     <use style="fill:#1f77b4;stroke:#1f77b4;" x="62.035227" xlink:href="#mb24498c08b" y="211.287878"/>
     <use style="fill:#1f77b4;stroke:#1f77b4;" x="70.472309" xlink:href="#mb24498c08b" y="267.605077"/>
     <use style="fill:#1f77b4;stroke:#1f77b4;" x="87.346471" xlink:href="#mb24498c08b" y="281.430449"/>
     <use style="fill:#1f77b4;stroke:#1f77b4;" x="121.094797" xlink:href="#mb24498c08b" y="292.57176"/>
     <use style="fill:#1f77b4;stroke:#1f77b4;" x="137.968959" xlink:href="#mb24498c08b" y="294.566055"/>
     <use style="fill:#1f77b4;stroke:#1f77b4;" x="205.46561" xlink:href="#mb24498c08b" y="298.250539"/>
     <use style="fill:#1f77b4;stroke:#1f77b4;" x="222.339773" xlink:href="#mb24498c08b" y="298.669091"/>
    </g>
   </g>
   <g id="line2d_78">
    <path clip-path="url(#p134ddfc3e0)" d="M 62.035227 211.479045 
L 70.472309 229.310832 
L 87.346471 250.621078 
L 121.094797 271.378568 
L 137.968959 276.857987 
L 205.46561 289.928259 
L 222.339773 291.942003 
" style="fill:none;stroke:#ff7f0e;stroke-linecap:square;stroke-width:1.5;"/>
    <g clip-path="url(#p134ddfc3e0)">
     <use style="fill:#ff7f0e;stroke:#ff7f0e;" x="62.035227" xlink:href="#m2765cb3295" y="211.479045"/>
     <use style="fill:#ff7f0e;stroke:#ff7f0e;" x="70.472309" xlink:href="#m2765cb3295" y="229.310832"/>
     <use style="fill:#ff7f0e;stroke:#ff7f0e;" x="87.346471" xlink:href="#m2765cb3295" y="250.621078"/>
     <use style="fill:#ff7f0e;stroke:#ff7f0e;" x="121.094797" xlink:href="#m2765cb3295" y="271.378568"/>
     <use style="fill:#ff7f0e;stroke:#ff7f0e;" x="137.968959" xlink:href="#m2765cb3295" y="276.857987"/>
     <use style="fill:#ff7f0e;stroke:#ff7f0e;" x="205.46561" xlink:href="#m2765cb3295" y="289.928259"/>
     <use style="fill:#ff7f0e;stroke:#ff7f0e;" x="222.339773" xlink:href="#m2765cb3295" y="291.942003"/>
    </g>
   </g>
   <g id="line2d_79">
    <path clip-path="url(#p134ddfc3e0)" d="M 62.035227 211.48082 
L 70.472309 221.30123 
L 87.346471 238.157206 
L 121.094797 261.526076 
L 137.968959 266.650323 
L 205.46561 282.472231 
L 222.339773 285.878441 
" style="fill:none;stroke:#2ca02c;stroke-linecap:square;stroke-width:1.5;"/>
    <g clip-path="url(#p134ddfc3e0)">
     <use style="fill:#2ca02c;stroke:#2ca02c;" x="62.035227" xlink:href="#m92f2b94504" y="211.48082"/>
     <use style="fill:#2ca02c;stroke:#2ca02c;" x="70.472309" xlink:href="#m92f2b94504" y="221.30123"/>
     <use style="fill:#2ca02c;stroke:#2ca02c;" x="87.346471" xlink:href="#m92f2b94504" y="238.157206"/>
     <use style="fill:#2ca02c;stroke:#2ca02c;" x="121.094797" xlink:href="#m92f2b94504" y="261.526076"/>
     <use style="fill:#2ca02c;stroke:#2ca02c;" x="137.968959" xlink:href="#m92f2b94504" y="266.650323"/>
     <use style="fill:#2ca02c;stroke:#2ca02c;" x="205.46561" xlink:href="#m92f2b94504" y="282.472231"/>
     <use style="fill:#2ca02c;stroke:#2ca02c;" x="222.339773" xlink:href="#m92f2b94504" y="285.878441"/>
    </g>
   </g>
   <g id="line2d_80">
    <path clip-path="url(#p134ddfc3e0)" d="M 62.035227 211.479387 
L 70.472309 199.250909 
L 87.346471 213.709124 
L 121.094797 240.659131 
L 137.968959 247.4509 
L 205.46561 272.80736 
L 222.339773 274.876994 
" style="fill:none;stroke:#d62728;stroke-linecap:square;stroke-width:1.5;"/>
    <g clip-path="url(#p134ddfc3e0)">
     <use style="fill:#d62728;stroke:#d62728;" x="62.035227" xlink:href="#m649b630512" y="211.479387"/>
     <use style="fill:#d62728;stroke:#d62728;" x="70.472309" xlink:href="#m649b630512" y="199.250909"/>
     <use style="fill:#d62728;stroke:#d62728;" x="87.346471" xlink:href="#m649b630512" y="213.709124"/>
     <use style="fill:#d62728;stroke:#d62728;" x="121.094797" xlink:href="#m649b630512" y="240.659131"/>
     <use style="fill:#d62728;stroke:#d62728;" x="137.968959" xlink:href="#m649b630512" y="247.4509"/>
     <use style="fill:#d62728;stroke:#d62728;" x="205.46561" xlink:href="#m649b630512" y="272.80736"/>
     <use style="fill:#d62728;stroke:#d62728;" x="222.339773" xlink:href="#m649b630512" y="274.876994"/>
    </g>
   </g>
   <g id="patch_15">
    <path d="M 54.02 303.64 
L 54.02 194.28 
" style="fill:none;stroke:#000000;stroke-linecap:square;stroke-linejoin:miter;stroke-width:0.8;"/>
   </g>
   <g id="patch_16">
    <path d="M 230.355 303.64 
L 230.355 194.28 
" style="fill:none;stroke:#000000;stroke-linecap:square;stroke-linejoin:miter;stroke-width:0.8;"/>
   </g>
   <g id="patch_17">
    <path d="M 54.02 303.64 
L 230.355 303.64 
" style="fill:none;stroke:#000000;stroke-linecap:square;stroke-linejoin:miter;stroke-width:0.8;"/>
   </g>
   <g id="patch_18">
    <path d="M 54.02 194.28 
L 230.355 194.28 
" style="fill:none;stroke:#000000;stroke-linecap:square;stroke-linejoin:miter;stroke-width:0.8;"/>
   </g>
   <g id="text_43">
    <!-- Efficiency -->
    <defs>
     <path d="M 9.8125 72.90625 
L 55.90625 72.90625 
L 55.90625 64.59375 
L 19.671875 64.59375 
L 19.671875 43.015625 
L 54.390625 43.015625 
L 54.390625 34.71875 
L 19.671875 34.71875 
L 19.671875 8.296875 
L 56.78125 8.296875 
L 56.78125 0 
L 9.8125 0 
z
" id="DejaVuSans-45"/>
    </defs>
    <g transform="translate(113.194375 188.28)scale(0.12 -0.12)">
     <use xlink:href="#DejaVuSans-45"/>
     <use x="63.183594" xlink:href="#DejaVuSans-66"/>
     <use x="98.388672" xlink:href="#DejaVuSans-66"/>
     <use x="133.59375" xlink:href="#DejaVuSans-69"/>
     <use x="161.376953" xlink:href="#DejaVuSans-63"/>
     <use x="216.357422" xlink:href="#DejaVuSans-69"/>
     <use x="244.140625" xlink:href="#DejaVuSans-65"/>
     <use x="305.664062" xlink:href="#DejaVuSans-6e"/>
     <use x="369.042969" xlink:href="#DejaVuSans-63"/>
     <use x="424.023438" xlink:href="#DejaVuSans-79"/>
    </g>
   </g>
   <g id="legend_3">
    <g id="patch_19">
     <path d="M 147.086928 240.578475 
L 225.497 240.578475 
Q 226.885 240.578475 226.885 239.190475 
L 226.885 199.138 
Q 226.885 197.75 225.497 197.75 
L 147.086928 197.75 
Q 145.698928 197.75 145.698928 199.138 
L 145.698928 239.190475 
Q 145.698928 240.578475 147.086928 240.578475 
z
" style="fill:#ffffff;opacity:0.8;stroke:#cccccc;stroke-linejoin:miter;"/>
    </g>
    <g id="line2d_81">
     <path d="M 148.474928 203.370316 
L 162.354928 203.370316 
" style="fill:none;stroke:#1f77b4;stroke-linecap:square;stroke-width:1.5;"/>
    </g>
    <g id="line2d_82">
     <g>
      <use style="fill:#1f77b4;stroke:#1f77b4;" x="155.414928" xlink:href="#mb24498c08b" y="203.370316"/>
     </g>
    </g>
    <g id="text_44">
     <!-- Grid 100x100 -->
     <g transform="translate(167.906928 205.799316)scale(0.0694 -0.0694)">
      <use xlink:href="#DejaVuSans-47"/>
      <use x="77.490234" xlink:href="#DejaVuSans-72"/>
      <use x="118.603516" xlink:href="#DejaVuSans-69"/>
      <use x="146.386719" xlink:href="#DejaVuSans-64"/>
      <use x="209.863281" xlink:href="#DejaVuSans-20"/>
      <use x="241.650391" xlink:href="#DejaVuSans-31"/>
      <use x="305.273438" xlink:href="#DejaVuSans-30"/>
      <use x="368.896484" xlink:href="#DejaVuSans-30"/>
      <use x="432.519531" xlink:href="#DejaVuSans-78"/>
      <use x="491.699219" xlink:href="#DejaVuSans-31"/>
      <use x="555.322266" xlink:href="#DejaVuSans-30"/>
      <use x="618.945312" xlink:href="#DejaVuSans-30"/>
     </g>
    </g>
    <g id="line2d_83">
     <path d="M 148.474928 213.556934 
L 162.354928 213.556934 
" style="fill:none;stroke:#ff7f0e;stroke-linecap:square;stroke-width:1.5;"/>
    </g>
    <g id="line2d_84">
     <g>
      <use style="fill:#ff7f0e;stroke:#ff7f0e;" x="155.414928" xlink:href="#m2765cb3295" y="213.556934"/>
     </g>
    </g>
    <g id="text_45">
     <!-- Grid 600x600 -->
     <g transform="translate(167.906928 215.985934)scale(0.0694 -0.0694)">
      <use xlink:href="#DejaVuSans-47"/>
      <use x="77.490234" xlink:href="#DejaVuSans-72"/>
      <use x="118.603516" xlink:href="#DejaVuSans-69"/>
      <use x="146.386719" xlink:href="#DejaVuSans-64"/>
      <use x="209.863281" xlink:href="#DejaVuSans-20"/>
      <use x="241.650391" xlink:href="#DejaVuSans-36"/>
      <use x="305.273438" xlink:href="#DejaVuSans-30"/>
      <use x="368.896484" xlink:href="#DejaVuSans-30"/>
      <use x="432.519531" xlink:href="#DejaVuSans-78"/>
      <use x="491.699219" xlink:href="#DejaVuSans-36"/>
      <use x="555.322266" xlink:href="#DejaVuSans-30"/>
      <use x="618.945312" xlink:href="#DejaVuSans-30"/>
     </g>
    </g>
    <g id="line2d_85">
     <path d="M 148.474928 223.743553 
L 162.354928 223.743553 
" style="fill:none;stroke:#2ca02c;stroke-linecap:square;stroke-width:1.5;"/>
    </g>
    <g id="line2d_86">
     <g>
      <use style="fill:#2ca02c;stroke:#2ca02c;" x="155.414928" xlink:href="#m92f2b94504" y="223.743553"/>
     </g>
    </g>
    <g id="text_46">
     <!-- Grid 1000x1000 -->
     <g transform="translate(167.906928 226.172553)scale(0.0694 -0.0694)">
      <use xlink:href="#DejaVuSans-47"/>
      <use x="77.490234" xlink:href="#DejaVuSans-72"/>
      <use x="118.603516" xlink:href="#DejaVuSans-69"/>
      <use x="146.386719" xlink:href="#DejaVuSans-64"/>
      <use x="209.863281" xlink:href="#DejaVuSans-20"/>
      <use x="241.650391" xlink:href="#DejaVuSans-31"/>
      <use x="305.273438" xlink:href="#DejaVuSans-30"/>
      <use x="368.896484" xlink:href="#DejaVuSans-30"/>
      <use x="432.519531" xlink:href="#DejaVuSans-30"/>
      <use x="496.142578" xlink:href="#DejaVuSans-78"/>
      <use x="555.322266" xlink:href="#DejaVuSans-31"/>
      <use x="618.945312" xlink:href="#DejaVuSans-30"/>
      <use x="682.568359" xlink:href="#DejaVuSans-30"/>
      <use x="746.191406" xlink:href="#DejaVuSans-30"/>
     </g>
    </g>
    <g id="line2d_87">
     <path d="M 148.474928 233.930172 
L 162.354928 233.930172 
" style="fill:none;stroke:#d62728;stroke-linecap:square;stroke-width:1.5;"/>
    </g>
    <g id="line2d_88">
     <g>
      <use style="fill:#d62728;stroke:#d62728;" x="155.414928" xlink:href="#m649b630512" y="233.930172"/>
     </g>
    </g>
    <g id="text_47">
     <!-- Grid 1500x1500 -->
     <g transform="translate(167.906928 236.359172)scale(0.0694 -0.0694)">
      <use xlink:href="#DejaVuSans-47"/>
      <use x="77.490234" xlink:href="#DejaVuSans-72"/>
      <use x="118.603516" xlink:href="#DejaVuSans-69"/>
      <use x="146.386719" xlink:href="#DejaVuSans-64"/>
      <use x="209.863281" xlink:href="#DejaVuSans-20"/>
      <use x="241.650391" xlink:href="#DejaVuSans-31"/>
      <use x="305.273438" xlink:href="#DejaVuSans-35"/>
      <use x="368.896484" xlink:href="#DejaVuSans-30"/>
      <use x="432.519531" xlink:href="#DejaVuSans-30"/>
      <use x="496.142578" xlink:href="#DejaVuSans-78"/>
      <use x="555.322266" xlink:href="#DejaVuSans-31"/>
      <use x="618.945312" xlink:href="#DejaVuSans-35"/>
      <use x="682.568359" xlink:href="#DejaVuSans-30"/>
      <use x="746.191406" xlink:href="#DejaVuSans-30"/>
     </g>
    </g>
   </g>
  </g>
 </g>
 <defs>
  <clipPath id="p8d3e430d38">
   <rect height="109.36" width="176.335" x="54.02" y="26.88"/>
  </clipPath>
  <clipPath id="p8960ae0283">
   <rect height="109.36" width="176.335" x="271.145" y="26.88"/>
  </clipPath>
  <clipPath id="p134ddfc3e0">
   <rect height="109.36" width="176.335" x="54.02" y="194.28"/>
  </clipPath>
 </defs>
</svg>
