<?xml version="1.0" encoding="utf-8" standalone="no"?>
<!DOCTYPE svg PUBLIC "-//W3C//DTD SVG 1.1//EN"
  "http://www.w3.org/Graphics/SVG/1.1/DTD/svg11.dtd">
<!-- Created with matplotlib (http://matplotlib.org/) -->
<svg height="345.6pt" version="1.1" viewBox="0 0 460.8 345.6" width="460.8pt" xmlns="http://www.w3.org/2000/svg" xmlns:xlink="http://www.w3.org/1999/xlink">
 <defs>
  <style type="text/css">
*{stroke-linecap:butt;stroke-linejoin:round;}
  </style>
 </defs>
 <g id="figure_1">
  <g id="patch_1">
   <path d="M 0 345.6 
L 460.8 345.6 
L 460.8 0 
L 0 0 
z
" style="fill:#ffffff;"/>
  </g>
  <g id="axes_1">
   <g id="patch_2">
    <path d="M 47.72 136.24 
L 222.48 136.24 
L 222.48 26.88 
L 47.72 26.88 
z
" style="fill:#ffffff;"/>
   </g>
   <g id="matplotlib.axis_1">
    <g id="xtick_1">
     <g id="line2d_1">
      <path clip-path="url(#pe2c6f7cf09)" d="M 55.663636 136.24 
L 55.663636 26.88 
" style="fill:none;stroke:#b0b0b0;stroke-linecap:square;stroke-width:0.8;"/>
     </g>
     <g id="line2d_2">
      <defs>
       <path d="M 0 0 
L 0 3.5 
" id="mc999be36e3" style="stroke:#000000;stroke-width:0.8;"/>
      </defs>
      <g>
       <use style="stroke:#000000;stroke-width:0.8;" x="55.663636" xlink:href="#mc999be36e3" y="136.24"/>
      </g>
     </g>
     <g id="text_1">
      <!-- 1 -->
      <defs>
       <path d="M 12.40625 8.296875 
L 28.515625 8.296875 
L 28.515625 63.921875 
L 10.984375 60.40625 
L 10.984375 69.390625 
L 28.421875 72.90625 
L 38.28125 72.90625 
L 38.28125 8.296875 
L 54.390625 8.296875 
L 54.390625 0 
L 12.40625 0 
z
" id="DejaVuSans-31"/>
      </defs>
      <g transform="translate(52.482386 150.838437)scale(0.1 -0.1)">
       <use xlink:href="#DejaVuSans-31"/>
      </g>
     </g>
    </g>
    <g id="xtick_2">
     <g id="line2d_3">
      <path clip-path="url(#pe2c6f7cf09)" d="M 108.621212 136.24 
L 108.621212 26.88 
" style="fill:none;stroke:#b0b0b0;stroke-linecap:square;stroke-width:0.8;"/>
     </g>
     <g id="line2d_4">
      <g>
       <use style="stroke:#000000;stroke-width:0.8;" x="108.621212" xlink:href="#mc999be36e3" y="136.24"/>
      </g>
     </g>
     <g id="text_2">
      <!-- 2 -->
      <defs>
       <path d="M 19.1875 8.296875 
L 53.609375 8.296875 
L 53.609375 0 
L 7.328125 0 
L 7.328125 8.296875 
Q 12.9375 14.109375 22.625 23.890625 
Q 32.328125 33.6875 34.8125 36.53125 
Q 39.546875 41.84375 41.421875 45.53125 
Q 43.3125 49.21875 43.3125 52.78125 
Q 43.3125 58.59375 39.234375 62.25 
Q 35.15625 65.921875 28.609375 65.921875 
Q 23.96875 65.921875 18.8125 64.3125 
Q 13.671875 62.703125 7.8125 59.421875 
L 7.8125 69.390625 
Q 13.765625 71.78125 18.9375 73 
Q 24.125 74.21875 28.421875 74.21875 
Q 39.75 74.21875 46.484375 68.546875 
Q 53.21875 62.890625 53.21875 53.421875 
Q 53.21875 48.921875 51.53125 44.890625 
Q 49.859375 40.875 45.40625 35.40625 
Q 44.1875 33.984375 37.640625 27.21875 
Q 31.109375 20.453125 19.1875 8.296875 
z
" id="DejaVuSans-32"/>
      </defs>
      <g transform="translate(105.439962 150.838437)scale(0.1 -0.1)">
       <use xlink:href="#DejaVuSans-32"/>
      </g>
     </g>
    </g>
    <g id="xtick_3">
     <g id="line2d_5">
      <path clip-path="url(#pe2c6f7cf09)" d="M 161.578788 136.24 
L 161.578788 26.88 
" style="fill:none;stroke:#b0b0b0;stroke-linecap:square;stroke-width:0.8;"/>
     </g>
     <g id="line2d_6">
      <g>
       <use style="stroke:#000000;stroke-width:0.8;" x="161.578788" xlink:href="#mc999be36e3" y="136.24"/>
      </g>
     </g>
     <g id="text_3">
      <!-- 3 -->
      <defs>
       <path d="M 40.578125 39.3125 
Q 47.65625 37.796875 51.625 33 
Q 55.609375 28.21875 55.609375 21.1875 
Q 55.609375 10.40625 48.1875 4.484375 
Q 40.765625 -1.421875 27.09375 -1.421875 
Q 22.515625 -1.421875 17.65625 -0.515625 
Q 12.796875 0.390625 7.625 2.203125 
L 7.625 11.71875 
Q 11.71875 9.328125 16.59375 8.109375 
Q 21.484375 6.890625 26.8125 6.890625 
Q 36.078125 6.890625 40.9375 10.546875 
Q 45.796875 14.203125 45.796875 21.1875 
Q 45.796875 27.640625 41.28125 31.265625 
Q 36.765625 34.90625 28.71875 34.90625 
L 20.21875 34.90625 
L 20.21875 43.015625 
L 29.109375 43.015625 
Q 36.375 43.015625 40.234375 45.921875 
Q 44.09375 48.828125 44.09375 54.296875 
Q 44.09375 59.90625 40.109375 62.90625 
Q 36.140625 65.921875 28.71875 65.921875 
Q 24.65625 65.921875 20.015625 65.03125 
Q 15.375 64.15625 9.8125 62.3125 
L 9.8125 71.09375 
Q 15.4375 72.65625 20.34375 73.4375 
Q 25.25 74.21875 29.59375 74.21875 
Q 40.828125 74.21875 47.359375 69.109375 
Q 53.90625 64.015625 53.90625 55.328125 
Q 53.90625 49.265625 50.4375 45.09375 
Q 46.96875 40.921875 40.578125 39.3125 
z
" id="DejaVuSans-33"/>
      </defs>
      <g transform="translate(158.397538 150.838437)scale(0.1 -0.1)">
       <use xlink:href="#DejaVuSans-33"/>
      </g>
     </g>
    </g>
    <g id="xtick_4">
     <g id="line2d_7">
      <path clip-path="url(#pe2c6f7cf09)" d="M 214.536364 136.24 
L 214.536364 26.88 
" style="fill:none;stroke:#b0b0b0;stroke-linecap:square;stroke-width:0.8;"/>
     </g>
     <g id="line2d_8">
      <g>
       <use style="stroke:#000000;stroke-width:0.8;" x="214.536364" xlink:href="#mc999be36e3" y="136.24"/>
      </g>
     </g>
     <g id="text_4">
      <!-- 4 -->
      <defs>
       <path d="M 37.796875 64.3125 
L 12.890625 25.390625 
L 37.796875 25.390625 
z
M 35.203125 72.90625 
L 47.609375 72.90625 
L 47.609375 25.390625 
L 58.015625 25.390625 
L 58.015625 17.1875 
L 47.609375 17.1875 
L 47.609375 0 
L 37.796875 0 
L 37.796875 17.1875 
L 4.890625 17.1875 
L 4.890625 26.703125 
z
" id="DejaVuSans-34"/>
      </defs>
      <g transform="translate(211.355114 150.838437)scale(0.1 -0.1)">
       <use xlink:href="#DejaVuSans-34"/>
      </g>
     </g>
    </g>
    <g id="text_5">
     <!-- threads -->
     <defs>
      <path d="M 18.3125 70.21875 
L 18.3125 54.6875 
L 36.8125 54.6875 
L 36.8125 47.703125 
L 18.3125 47.703125 
L 18.3125 18.015625 
Q 18.3125 11.328125 20.140625 9.421875 
Q 21.96875 7.515625 27.59375 7.515625 
L 36.8125 7.515625 
L 36.8125 0 
L 27.59375 0 
Q 17.1875 0 13.234375 3.875 
Q 9.28125 7.765625 9.28125 18.015625 
L 9.28125 47.703125 
L 2.6875 47.703125 
L 2.6875 54.6875 
L 9.28125 54.6875 
L 9.28125 70.21875 
z
" id="DejaVuSans-74"/>
      <path d="M 54.890625 33.015625 
L 54.890625 0 
L 45.90625 0 
L 45.90625 32.71875 
Q 45.90625 40.484375 42.875 44.328125 
Q 39.84375 48.1875 33.796875 48.1875 
Q 26.515625 48.1875 22.3125 43.546875 
Q 18.109375 38.921875 18.109375 30.90625 
L 18.109375 0 
L 9.078125 0 
L 9.078125 75.984375 
L 18.109375 75.984375 
L 18.109375 46.1875 
Q 21.34375 51.125 25.703125 53.5625 
Q 30.078125 56 35.796875 56 
Q 45.21875 56 50.046875 50.171875 
Q 54.890625 44.34375 54.890625 33.015625 
z
" id="DejaVuSans-68"/>
      <path d="M 41.109375 46.296875 
Q 39.59375 47.171875 37.8125 47.578125 
Q 36.03125 48 33.890625 48 
Q 26.265625 48 22.1875 43.046875 
Q 18.109375 38.09375 18.109375 28.8125 
L 18.109375 0 
L 9.078125 0 
L 9.078125 54.6875 
L 18.109375 54.6875 
L 18.109375 46.1875 
Q 20.953125 51.171875 25.484375 53.578125 
Q 30.03125 56 36.53125 56 
Q 37.453125 56 38.578125 55.875 
Q 39.703125 55.765625 41.0625 55.515625 
z
" id="DejaVuSans-72"/>
      <path d="M 56.203125 29.59375 
L 56.203125 25.203125 
L 14.890625 25.203125 
Q 15.484375 15.921875 20.484375 11.0625 
Q 25.484375 6.203125 34.421875 6.203125 
Q 39.59375 6.203125 44.453125 7.46875 
Q 49.3125 8.734375 54.109375 11.28125 
L 54.109375 2.78125 
Q 49.265625 0.734375 44.1875 -0.34375 
Q 39.109375 -1.421875 33.890625 -1.421875 
Q 20.796875 -1.421875 13.15625 6.1875 
Q 5.515625 13.8125 5.515625 26.8125 
Q 5.515625 40.234375 12.765625 48.109375 
Q 20.015625 56 32.328125 56 
Q 43.359375 56 49.78125 48.890625 
Q 56.203125 41.796875 56.203125 29.59375 
z
M 47.21875 32.234375 
Q 47.125 39.59375 43.09375 43.984375 
Q 39.0625 48.390625 32.421875 48.390625 
Q 24.90625 48.390625 20.390625 44.140625 
Q 15.875 39.890625 15.1875 32.171875 
z
" id="DejaVuSans-65"/>
      <path d="M 34.28125 27.484375 
Q 23.390625 27.484375 19.1875 25 
Q 14.984375 22.515625 14.984375 16.5 
Q 14.984375 11.71875 18.140625 8.90625 
Q 21.296875 6.109375 26.703125 6.109375 
Q 34.1875 6.109375 38.703125 11.40625 
Q 43.21875 16.703125 43.21875 25.484375 
L 43.21875 27.484375 
z
M 52.203125 31.203125 
L 52.203125 0 
L 43.21875 0 
L 43.21875 8.296875 
Q 40.140625 3.328125 35.546875 0.953125 
Q 30.953125 -1.421875 24.3125 -1.421875 
Q 15.921875 -1.421875 10.953125 3.296875 
Q 6 8.015625 6 15.921875 
Q 6 25.140625 12.171875 29.828125 
Q 18.359375 34.515625 30.609375 34.515625 
L 43.21875 34.515625 
L 43.21875 35.40625 
Q 43.21875 41.609375 39.140625 45 
Q 35.0625 48.390625 27.6875 48.390625 
Q 23 48.390625 18.546875 47.265625 
Q 14.109375 46.140625 10.015625 43.890625 
L 10.015625 52.203125 
Q 14.9375 54.109375 19.578125 55.046875 
Q 24.21875 56 28.609375 56 
Q 40.484375 56 46.34375 49.84375 
Q 52.203125 43.703125 52.203125 31.203125 
z
" id="DejaVuSans-61"/>
      <path d="M 45.40625 46.390625 
L 45.40625 75.984375 
L 54.390625 75.984375 
L 54.390625 0 
L 45.40625 0 
L 45.40625 8.203125 
Q 42.578125 3.328125 38.25 0.953125 
Q 33.9375 -1.421875 27.875 -1.421875 
Q 17.96875 -1.421875 11.734375 6.484375 
Q 5.515625 14.40625 5.515625 27.296875 
Q 5.515625 40.1875 11.734375 48.09375 
Q 17.96875 56 27.875 56 
Q 33.9375 56 38.25 53.625 
Q 42.578125 51.265625 45.40625 46.390625 
z
M 14.796875 27.296875 
Q 14.796875 17.390625 18.875 11.75 
Q 22.953125 6.109375 30.078125 6.109375 
Q 37.203125 6.109375 41.296875 11.75 
Q 45.40625 17.390625 45.40625 27.296875 
Q 45.40625 37.203125 41.296875 42.84375 
Q 37.203125 48.484375 30.078125 48.484375 
Q 22.953125 48.484375 18.875 42.84375 
Q 14.796875 37.203125 14.796875 27.296875 
z
" id="DejaVuSans-64"/>
      <path d="M 44.28125 53.078125 
L 44.28125 44.578125 
Q 40.484375 46.53125 36.375 47.5 
Q 32.28125 48.484375 27.875 48.484375 
Q 21.1875 48.484375 17.84375 46.4375 
Q 14.5 44.390625 14.5 40.28125 
Q 14.5 37.15625 16.890625 35.375 
Q 19.28125 33.59375 26.515625 31.984375 
L 29.59375 31.296875 
Q 39.15625 29.25 43.1875 25.515625 
Q 47.21875 21.78125 47.21875 15.09375 
Q 47.21875 7.46875 41.1875 3.015625 
Q 35.15625 -1.421875 24.609375 -1.421875 
Q 20.21875 -1.421875 15.453125 -0.5625 
Q 10.6875 0.296875 5.421875 2 
L 5.421875 11.28125 
Q 10.40625 8.6875 15.234375 7.390625 
Q 20.0625 6.109375 24.8125 6.109375 
Q 31.15625 6.109375 34.5625 8.28125 
Q 37.984375 10.453125 37.984375 14.40625 
Q 37.984375 18.0625 35.515625 20.015625 
Q 33.0625 21.96875 24.703125 23.78125 
L 21.578125 24.515625 
Q 13.234375 26.265625 9.515625 29.90625 
Q 5.8125 33.546875 5.8125 39.890625 
Q 5.8125 47.609375 11.28125 51.796875 
Q 16.75 56 26.8125 56 
Q 31.78125 56 36.171875 55.265625 
Q 40.578125 54.546875 44.28125 53.078125 
z
" id="DejaVuSans-73"/>
     </defs>
     <g transform="translate(115.997656 164.516562)scale(0.1 -0.1)">
      <use xlink:href="#DejaVuSans-74"/>
      <use x="39.208984" xlink:href="#DejaVuSans-68"/>
      <use x="102.587891" xlink:href="#DejaVuSans-72"/>
      <use x="143.669922" xlink:href="#DejaVuSans-65"/>
      <use x="205.193359" xlink:href="#DejaVuSans-61"/>
      <use x="266.472656" xlink:href="#DejaVuSans-64"/>
      <use x="329.949219" xlink:href="#DejaVuSans-73"/>
     </g>
    </g>
   </g>
   <g id="matplotlib.axis_2">
    <g id="ytick_1">
     <g id="line2d_9">
      <path clip-path="url(#pe2c6f7cf09)" d="M 47.72 131.528295 
L 222.48 131.528295 
" style="fill:none;stroke:#b0b0b0;stroke-linecap:square;stroke-width:0.8;"/>
     </g>
     <g id="line2d_10">
      <defs>
       <path d="M 0 0 
L -3.5 0 
" id="mc9df75ab00" style="stroke:#000000;stroke-width:0.8;"/>
      </defs>
      <g>
       <use style="stroke:#000000;stroke-width:0.8;" x="47.72" xlink:href="#mc9df75ab00" y="131.528295"/>
      </g>
     </g>
     <g id="text_6">
      <!-- 0 -->
      <defs>
       <path d="M 31.78125 66.40625 
Q 24.171875 66.40625 20.328125 58.90625 
Q 16.5 51.421875 16.5 36.375 
Q 16.5 21.390625 20.328125 13.890625 
Q 24.171875 6.390625 31.78125 6.390625 
Q 39.453125 6.390625 43.28125 13.890625 
Q 47.125 21.390625 47.125 36.375 
Q 47.125 51.421875 43.28125 58.90625 
Q 39.453125 66.40625 31.78125 66.40625 
z
M 31.78125 74.21875 
Q 44.046875 74.21875 50.515625 64.515625 
Q 56.984375 54.828125 56.984375 36.375 
Q 56.984375 17.96875 50.515625 8.265625 
Q 44.046875 -1.421875 31.78125 -1.421875 
Q 19.53125 -1.421875 13.0625 8.265625 
Q 6.59375 17.96875 6.59375 36.375 
Q 6.59375 54.828125 13.0625 64.515625 
Q 19.53125 74.21875 31.78125 74.21875 
z
" id="DejaVuSans-30"/>
      </defs>
      <g transform="translate(34.3575 135.327514)scale(0.1 -0.1)">
       <use xlink:href="#DejaVuSans-30"/>
      </g>
     </g>
    </g>
    <g id="ytick_2">
     <g id="line2d_11">
      <path clip-path="url(#pe2c6f7cf09)" d="M 47.72 91.485262 
L 222.48 91.485262 
" style="fill:none;stroke:#b0b0b0;stroke-linecap:square;stroke-width:0.8;"/>
     </g>
     <g id="line2d_12">
      <g>
       <use style="stroke:#000000;stroke-width:0.8;" x="47.72" xlink:href="#mc9df75ab00" y="91.485262"/>
      </g>
     </g>
     <g id="text_7">
      <!-- 20 -->
      <g transform="translate(27.995 95.284481)scale(0.1 -0.1)">
       <use xlink:href="#DejaVuSans-32"/>
       <use x="63.623047" xlink:href="#DejaVuSans-30"/>
      </g>
     </g>
    </g>
    <g id="ytick_3">
     <g id="line2d_13">
      <path clip-path="url(#pe2c6f7cf09)" d="M 47.72 51.44223 
L 222.48 51.44223 
" style="fill:none;stroke:#b0b0b0;stroke-linecap:square;stroke-width:0.8;"/>
     </g>
     <g id="line2d_14">
      <g>
       <use style="stroke:#000000;stroke-width:0.8;" x="47.72" xlink:href="#mc9df75ab00" y="51.44223"/>
      </g>
     </g>
     <g id="text_8">
      <!-- 40 -->
      <g transform="translate(27.995 55.241448)scale(0.1 -0.1)">
       <use xlink:href="#DejaVuSans-34"/>
       <use x="63.623047" xlink:href="#DejaVuSans-30"/>
      </g>
     </g>
    </g>
    <g id="text_9">
     <!-- time -->
     <defs>
      <path d="M 9.421875 54.6875 
L 18.40625 54.6875 
L 18.40625 0 
L 9.421875 0 
z
M 9.421875 75.984375 
L 18.40625 75.984375 
L 18.40625 64.59375 
L 9.421875 64.59375 
z
" id="DejaVuSans-69"/>
      <path d="M 52 44.1875 
Q 55.375 50.25 60.0625 53.125 
Q 64.75 56 71.09375 56 
Q 79.640625 56 84.28125 50.015625 
Q 88.921875 44.046875 88.921875 33.015625 
L 88.921875 0 
L 79.890625 0 
L 79.890625 32.71875 
Q 79.890625 40.578125 77.09375 44.375 
Q 74.3125 48.1875 68.609375 48.1875 
Q 61.625 48.1875 57.5625 43.546875 
Q 53.515625 38.921875 53.515625 30.90625 
L 53.515625 0 
L 44.484375 0 
L 44.484375 32.71875 
Q 44.484375 40.625 41.703125 44.40625 
Q 38.921875 48.1875 33.109375 48.1875 
Q 26.21875 48.1875 22.15625 43.53125 
Q 18.109375 38.875 18.109375 30.90625 
L 18.109375 0 
L 9.078125 0 
L 9.078125 54.6875 
L 18.109375 54.6875 
L 18.109375 46.1875 
Q 21.1875 51.21875 25.484375 53.609375 
Q 29.78125 56 35.6875 56 
Q 41.65625 56 45.828125 52.96875 
Q 50 49.953125 52 44.1875 
z
" id="DejaVuSans-6d"/>
     </defs>
     <g transform="translate(21.915313 92.856094)rotate(-90)scale(0.1 -0.1)">
      <use xlink:href="#DejaVuSans-74"/>
      <use x="39.208984" xlink:href="#DejaVuSans-69"/>
      <use x="66.992188" xlink:href="#DejaVuSans-6d"/>
      <use x="164.404297" xlink:href="#DejaVuSans-65"/>
     </g>
    </g>
   </g>
   <g id="line2d_15">
    <path clip-path="url(#pe2c6f7cf09)" d="M 55.663636 131.174238 
L 108.621212 131.227869 
L 161.578788 131.269091 
L 214.536364 131.268426 
" style="fill:none;stroke:#1f77b4;stroke-linecap:square;stroke-width:1.5;"/>
    <defs>
     <path d="M 0 1.5 
C 0.397805 1.5 0.77937 1.341951 1.06066 1.06066 
C 1.341951 0.77937 1.5 0.397805 1.5 0 
C 1.5 -0.397805 1.341951 -0.77937 1.06066 -1.06066 
C 0.77937 -1.341951 0.397805 -1.5 0 -1.5 
C -0.397805 -1.5 -0.77937 -1.341951 -1.06066 -1.06066 
C -1.341951 -0.77937 -1.5 -0.397805 -1.5 0 
C -1.5 0.397805 -1.341951 0.77937 -1.06066 1.06066 
C -0.77937 1.341951 -0.397805 1.5 0 1.5 
z
" id="m8f4bba484c" style="stroke:#1f77b4;"/>
    </defs>
    <g clip-path="url(#pe2c6f7cf09)">
     <use style="fill:#1f77b4;stroke:#1f77b4;" x="55.663636" xlink:href="#m8f4bba484c" y="131.174238"/>
     <use style="fill:#1f77b4;stroke:#1f77b4;" x="108.621212" xlink:href="#m8f4bba484c" y="131.227869"/>
     <use style="fill:#1f77b4;stroke:#1f77b4;" x="161.578788" xlink:href="#m8f4bba484c" y="131.269091"/>
     <use style="fill:#1f77b4;stroke:#1f77b4;" x="214.536364" xlink:href="#m8f4bba484c" y="131.268426"/>
    </g>
   </g>
   <g id="line2d_16">
    <path clip-path="url(#pe2c6f7cf09)" d="M 55.663636 116.792105 
L 108.621212 123.547792 
L 161.578788 125.398487 
L 214.536364 126.259299 
" style="fill:none;stroke:#ff7f0e;stroke-linecap:square;stroke-width:1.5;"/>
    <defs>
     <path d="M 0 1.5 
C 0.397805 1.5 0.77937 1.341951 1.06066 1.06066 
C 1.341951 0.77937 1.5 0.397805 1.5 0 
C 1.5 -0.397805 1.341951 -0.77937 1.06066 -1.06066 
C 0.77937 -1.341951 0.397805 -1.5 0 -1.5 
C -0.397805 -1.5 -0.77937 -1.341951 -1.06066 -1.06066 
C -1.341951 -0.77937 -1.5 -0.397805 -1.5 0 
C -1.5 0.397805 -1.341951 0.77937 -1.06066 1.06066 
C -0.77937 1.341951 -0.397805 1.5 0 1.5 
z
" id="m7c2fb3ee7e" style="stroke:#ff7f0e;"/>
    </defs>
    <g clip-path="url(#pe2c6f7cf09)">
     <use style="fill:#ff7f0e;stroke:#ff7f0e;" x="55.663636" xlink:href="#m7c2fb3ee7e" y="116.792105"/>
     <use style="fill:#ff7f0e;stroke:#ff7f0e;" x="108.621212" xlink:href="#m7c2fb3ee7e" y="123.547792"/>
     <use style="fill:#ff7f0e;stroke:#ff7f0e;" x="161.578788" xlink:href="#m7c2fb3ee7e" y="125.398487"/>
     <use style="fill:#ff7f0e;stroke:#ff7f0e;" x="214.536364" xlink:href="#m7c2fb3ee7e" y="126.259299"/>
    </g>
   </g>
   <g id="line2d_17">
    <path clip-path="url(#pe2c6f7cf09)" d="M 55.663636 88.060582 
L 108.621212 109.140702 
L 161.578788 115.27649 
L 214.536364 117.69954 
" style="fill:none;stroke:#2ca02c;stroke-linecap:square;stroke-width:1.5;"/>
    <defs>
     <path d="M 0 1.5 
C 0.397805 1.5 0.77937 1.341951 1.06066 1.06066 
C 1.341951 0.77937 1.5 0.397805 1.5 0 
C 1.5 -0.397805 1.341951 -0.77937 1.06066 -1.06066 
C 0.77937 -1.341951 0.397805 -1.5 0 -1.5 
C -0.397805 -1.5 -0.77937 -1.341951 -1.06066 -1.06066 
C -1.341951 -0.77937 -1.5 -0.397805 -1.5 0 
C -1.5 0.397805 -1.341951 0.77937 -1.06066 1.06066 
C -0.77937 1.341951 -0.397805 1.5 0 1.5 
z
" id="mbc9deb2a6a" style="stroke:#2ca02c;"/>
    </defs>
    <g clip-path="url(#pe2c6f7cf09)">
     <use style="fill:#2ca02c;stroke:#2ca02c;" x="55.663636" xlink:href="#mbc9deb2a6a" y="88.060582"/>
     <use style="fill:#2ca02c;stroke:#2ca02c;" x="108.621212" xlink:href="#mbc9deb2a6a" y="109.140702"/>
     <use style="fill:#2ca02c;stroke:#2ca02c;" x="161.578788" xlink:href="#mbc9deb2a6a" y="115.27649"/>
     <use style="fill:#2ca02c;stroke:#2ca02c;" x="214.536364" xlink:href="#mbc9deb2a6a" y="117.69954"/>
    </g>
   </g>
   <g id="line2d_18">
    <path clip-path="url(#pe2c6f7cf09)" d="M 55.663636 31.850909 
L 108.621212 80.67084 
L 161.578788 96.41823 
L 214.536364 101.905594 
" style="fill:none;stroke:#d62728;stroke-linecap:square;stroke-width:1.5;"/>
    <defs>
     <path d="M 0 1.5 
C 0.397805 1.5 0.77937 1.341951 1.06066 1.06066 
C 1.341951 0.77937 1.5 0.397805 1.5 0 
C 1.5 -0.397805 1.341951 -0.77937 1.06066 -1.06066 
C 0.77937 -1.341951 0.397805 -1.5 0 -1.5 
C -0.397805 -1.5 -0.77937 -1.341951 -1.06066 -1.06066 
C -1.341951 -0.77937 -1.5 -0.397805 -1.5 0 
C -1.5 0.397805 -1.341951 0.77937 -1.06066 1.06066 
C -0.77937 1.341951 -0.397805 1.5 0 1.5 
z
" id="mf61bd9cb56" style="stroke:#d62728;"/>
    </defs>
    <g clip-path="url(#pe2c6f7cf09)">
     <use style="fill:#d62728;stroke:#d62728;" x="55.663636" xlink:href="#mf61bd9cb56" y="31.850909"/>
     <use style="fill:#d62728;stroke:#d62728;" x="108.621212" xlink:href="#mf61bd9cb56" y="80.67084"/>
     <use style="fill:#d62728;stroke:#d62728;" x="161.578788" xlink:href="#mf61bd9cb56" y="96.41823"/>
     <use style="fill:#d62728;stroke:#d62728;" x="214.536364" xlink:href="#mf61bd9cb56" y="101.905594"/>
    </g>
   </g>
   <g id="patch_3">
    <path d="M 47.72 136.24 
L 47.72 26.88 
" style="fill:none;stroke:#000000;stroke-linecap:square;stroke-linejoin:miter;stroke-width:0.8;"/>
   </g>
   <g id="patch_4">
    <path d="M 222.48 136.24 
L 222.48 26.88 
" style="fill:none;stroke:#000000;stroke-linecap:square;stroke-linejoin:miter;stroke-width:0.8;"/>
   </g>
   <g id="patch_5">
    <path d="M 47.72 136.24 
L 222.48 136.24 
" style="fill:none;stroke:#000000;stroke-linecap:square;stroke-linejoin:miter;stroke-width:0.8;"/>
   </g>
   <g id="patch_6">
    <path d="M 47.72 26.88 
L 222.48 26.88 
" style="fill:none;stroke:#000000;stroke-linecap:square;stroke-linejoin:miter;stroke-width:0.8;"/>
   </g>
   <g id="text_10">
    <!-- Runtime -->
    <defs>
     <path d="M 44.390625 34.1875 
Q 47.5625 33.109375 50.5625 29.59375 
Q 53.5625 26.078125 56.59375 19.921875 
L 66.609375 0 
L 56 0 
L 46.6875 18.703125 
Q 43.0625 26.03125 39.671875 28.421875 
Q 36.28125 30.8125 30.421875 30.8125 
L 19.671875 30.8125 
L 19.671875 0 
L 9.8125 0 
L 9.8125 72.90625 
L 32.078125 72.90625 
Q 44.578125 72.90625 50.734375 67.671875 
Q 56.890625 62.453125 56.890625 51.90625 
Q 56.890625 45.015625 53.6875 40.46875 
Q 50.484375 35.9375 44.390625 34.1875 
z
M 19.671875 64.796875 
L 19.671875 38.921875 
L 32.078125 38.921875 
Q 39.203125 38.921875 42.84375 42.21875 
Q 46.484375 45.515625 46.484375 51.90625 
Q 46.484375 58.296875 42.84375 61.546875 
Q 39.203125 64.796875 32.078125 64.796875 
z
" id="DejaVuSans-52"/>
     <path d="M 8.5 21.578125 
L 8.5 54.6875 
L 17.484375 54.6875 
L 17.484375 21.921875 
Q 17.484375 14.15625 20.5 10.265625 
Q 23.53125 6.390625 29.59375 6.390625 
Q 36.859375 6.390625 41.078125 11.03125 
Q 45.3125 15.671875 45.3125 23.6875 
L 45.3125 54.6875 
L 54.296875 54.6875 
L 54.296875 0 
L 45.3125 0 
L 45.3125 8.40625 
Q 42.046875 3.421875 37.71875 1 
Q 33.40625 -1.421875 27.6875 -1.421875 
Q 18.265625 -1.421875 13.375 4.4375 
Q 8.5 10.296875 8.5 21.578125 
z
M 31.109375 56 
z
" id="DejaVuSans-75"/>
     <path d="M 54.890625 33.015625 
L 54.890625 0 
L 45.90625 0 
L 45.90625 32.71875 
Q 45.90625 40.484375 42.875 44.328125 
Q 39.84375 48.1875 33.796875 48.1875 
Q 26.515625 48.1875 22.3125 43.546875 
Q 18.109375 38.921875 18.109375 30.90625 
L 18.109375 0 
L 9.078125 0 
L 9.078125 54.6875 
L 18.109375 54.6875 
L 18.109375 46.1875 
Q 21.34375 51.125 25.703125 53.5625 
Q 30.078125 56 35.796875 56 
Q 45.21875 56 50.046875 50.171875 
Q 54.890625 44.34375 54.890625 33.015625 
z
" id="DejaVuSans-6e"/>
    </defs>
    <g transform="translate(109.774375 20.88)scale(0.12 -0.12)">
     <use xlink:href="#DejaVuSans-52"/>
     <use x="69.419922" xlink:href="#DejaVuSans-75"/>
     <use x="132.798828" xlink:href="#DejaVuSans-6e"/>
     <use x="196.177734" xlink:href="#DejaVuSans-74"/>
     <use x="235.386719" xlink:href="#DejaVuSans-69"/>
     <use x="263.169922" xlink:href="#DejaVuSans-6d"/>
     <use x="360.582031" xlink:href="#DejaVuSans-65"/>
    </g>
   </g>
   <g id="legend_1">
    <g id="patch_7">
     <path d="M 139.211928 73.178475 
L 217.622 73.178475 
Q 219.01 73.178475 219.01 71.790475 
L 219.01 31.738 
Q 219.01 30.35 217.622 30.35 
L 139.211928 30.35 
Q 137.823928 30.35 137.823928 31.738 
L 137.823928 71.790475 
Q 137.823928 73.178475 139.211928 73.178475 
z
" style="fill:#ffffff;opacity:0.8;stroke:#cccccc;stroke-linejoin:miter;"/>
    </g>
    <g id="line2d_19">
     <path d="M 140.599928 35.970316 
L 154.479928 35.970316 
" style="fill:none;stroke:#1f77b4;stroke-linecap:square;stroke-width:1.5;"/>
    </g>
    <g id="line2d_20">
     <g>
      <use style="fill:#1f77b4;stroke:#1f77b4;" x="147.539928" xlink:href="#m8f4bba484c" y="35.970316"/>
     </g>
    </g>
    <g id="text_11">
     <!-- Grid 100x100 -->
     <defs>
      <path d="M 59.515625 10.40625 
L 59.515625 29.984375 
L 43.40625 29.984375 
L 43.40625 38.09375 
L 69.28125 38.09375 
L 69.28125 6.78125 
Q 63.578125 2.734375 56.6875 0.65625 
Q 49.8125 -1.421875 42 -1.421875 
Q 24.90625 -1.421875 15.25 8.5625 
Q 5.609375 18.5625 5.609375 36.375 
Q 5.609375 54.25 15.25 64.234375 
Q 24.90625 74.21875 42 74.21875 
Q 49.125 74.21875 55.546875 72.453125 
Q 61.96875 70.703125 67.390625 67.28125 
L 67.390625 56.78125 
Q 61.921875 61.421875 55.765625 63.765625 
Q 49.609375 66.109375 42.828125 66.109375 
Q 29.4375 66.109375 22.71875 58.640625 
Q 16.015625 51.171875 16.015625 36.375 
Q 16.015625 21.625 22.71875 14.15625 
Q 29.4375 6.6875 42.828125 6.6875 
Q 48.046875 6.6875 52.140625 7.59375 
Q 56.25 8.5 59.515625 10.40625 
z
" id="DejaVuSans-47"/>
      <path id="DejaVuSans-20"/>
      <path d="M 54.890625 54.6875 
L 35.109375 28.078125 
L 55.90625 0 
L 45.3125 0 
L 29.390625 21.484375 
L 13.484375 0 
L 2.875 0 
L 24.125 28.609375 
L 4.6875 54.6875 
L 15.28125 54.6875 
L 29.78125 35.203125 
L 44.28125 54.6875 
z
" id="DejaVuSans-78"/>
     </defs>
     <g transform="translate(160.031928 38.399316)scale(0.0694 -0.0694)">
      <use xlink:href="#DejaVuSans-47"/>
      <use x="77.490234" xlink:href="#DejaVuSans-72"/>
      <use x="118.603516" xlink:href="#DejaVuSans-69"/>
      <use x="146.386719" xlink:href="#DejaVuSans-64"/>
      <use x="209.863281" xlink:href="#DejaVuSans-20"/>
      <use x="241.650391" xlink:href="#DejaVuSans-31"/>
      <use x="305.273438" xlink:href="#DejaVuSans-30"/>
      <use x="368.896484" xlink:href="#DejaVuSans-30"/>
      <use x="432.519531" xlink:href="#DejaVuSans-78"/>
      <use x="491.699219" xlink:href="#DejaVuSans-31"/>
      <use x="555.322266" xlink:href="#DejaVuSans-30"/>
      <use x="618.945312" xlink:href="#DejaVuSans-30"/>
     </g>
    </g>
    <g id="line2d_21">
     <path d="M 140.599928 46.156934 
L 154.479928 46.156934 
" style="fill:none;stroke:#ff7f0e;stroke-linecap:square;stroke-width:1.5;"/>
    </g>
    <g id="line2d_22">
     <g>
      <use style="fill:#ff7f0e;stroke:#ff7f0e;" x="147.539928" xlink:href="#m7c2fb3ee7e" y="46.156934"/>
     </g>
    </g>
    <g id="text_12">
     <!-- Grid 600x600 -->
     <defs>
      <path d="M 33.015625 40.375 
Q 26.375 40.375 22.484375 35.828125 
Q 18.609375 31.296875 18.609375 23.390625 
Q 18.609375 15.53125 22.484375 10.953125 
Q 26.375 6.390625 33.015625 6.390625 
Q 39.65625 6.390625 43.53125 10.953125 
Q 47.40625 15.53125 47.40625 23.390625 
Q 47.40625 31.296875 43.53125 35.828125 
Q 39.65625 40.375 33.015625 40.375 
z
M 52.59375 71.296875 
L 52.59375 62.3125 
Q 48.875 64.0625 45.09375 64.984375 
Q 41.3125 65.921875 37.59375 65.921875 
Q 27.828125 65.921875 22.671875 59.328125 
Q 17.53125 52.734375 16.796875 39.40625 
Q 19.671875 43.65625 24.015625 45.921875 
Q 28.375 48.1875 33.59375 48.1875 
Q 44.578125 48.1875 50.953125 41.515625 
Q 57.328125 34.859375 57.328125 23.390625 
Q 57.328125 12.15625 50.6875 5.359375 
Q 44.046875 -1.421875 33.015625 -1.421875 
Q 20.359375 -1.421875 13.671875 8.265625 
Q 6.984375 17.96875 6.984375 36.375 
Q 6.984375 53.65625 15.1875 63.9375 
Q 23.390625 74.21875 37.203125 74.21875 
Q 40.921875 74.21875 44.703125 73.484375 
Q 48.484375 72.75 52.59375 71.296875 
z
" id="DejaVuSans-36"/>
     </defs>
     <g transform="translate(160.031928 48.585934)scale(0.0694 -0.0694)">
      <use xlink:href="#DejaVuSans-47"/>
      <use x="77.490234" xlink:href="#DejaVuSans-72"/>
      <use x="118.603516" xlink:href="#DejaVuSans-69"/>
      <use x="146.386719" xlink:href="#DejaVuSans-64"/>
      <use x="209.863281" xlink:href="#DejaVuSans-20"/>
      <use x="241.650391" xlink:href="#DejaVuSans-36"/>
      <use x="305.273438" xlink:href="#DejaVuSans-30"/>
      <use x="368.896484" xlink:href="#DejaVuSans-30"/>
      <use x="432.519531" xlink:href="#DejaVuSans-78"/>
      <use x="491.699219" xlink:href="#DejaVuSans-36"/>
      <use x="555.322266" xlink:href="#DejaVuSans-30"/>
      <use x="618.945312" xlink:href="#DejaVuSans-30"/>
     </g>
    </g>
    <g id="line2d_23">
     <path d="M 140.599928 56.343553 
L 154.479928 56.343553 
" style="fill:none;stroke:#2ca02c;stroke-linecap:square;stroke-width:1.5;"/>
    </g>
    <g id="line2d_24">
     <g>
      <use style="fill:#2ca02c;stroke:#2ca02c;" x="147.539928" xlink:href="#mbc9deb2a6a" y="56.343553"/>
     </g>
    </g>
    <g id="text_13">
     <!-- Grid 1000x1000 -->
     <g transform="translate(160.031928 58.772553)scale(0.0694 -0.0694)">
      <use xlink:href="#DejaVuSans-47"/>
      <use x="77.490234" xlink:href="#DejaVuSans-72"/>
      <use x="118.603516" xlink:href="#DejaVuSans-69"/>
      <use x="146.386719" xlink:href="#DejaVuSans-64"/>
      <use x="209.863281" xlink:href="#DejaVuSans-20"/>
      <use x="241.650391" xlink:href="#DejaVuSans-31"/>
      <use x="305.273438" xlink:href="#DejaVuSans-30"/>
      <use x="368.896484" xlink:href="#DejaVuSans-30"/>
      <use x="432.519531" xlink:href="#DejaVuSans-30"/>
      <use x="496.142578" xlink:href="#DejaVuSans-78"/>
      <use x="555.322266" xlink:href="#DejaVuSans-31"/>
      <use x="618.945312" xlink:href="#DejaVuSans-30"/>
      <use x="682.568359" xlink:href="#DejaVuSans-30"/>
      <use x="746.191406" xlink:href="#DejaVuSans-30"/>
     </g>
    </g>
    <g id="line2d_25">
     <path d="M 140.599928 66.530172 
L 154.479928 66.530172 
" style="fill:none;stroke:#d62728;stroke-linecap:square;stroke-width:1.5;"/>
    </g>
    <g id="line2d_26">
     <g>
      <use style="fill:#d62728;stroke:#d62728;" x="147.539928" xlink:href="#mf61bd9cb56" y="66.530172"/>
     </g>
    </g>
    <g id="text_14">
     <!-- Grid 1500x1500 -->
     <defs>
      <path d="M 10.796875 72.90625 
L 49.515625 72.90625 
L 49.515625 64.59375 
L 19.828125 64.59375 
L 19.828125 46.734375 
Q 21.96875 47.46875 24.109375 47.828125 
Q 26.265625 48.1875 28.421875 48.1875 
Q 40.625 48.1875 47.75 41.5 
Q 54.890625 34.8125 54.890625 23.390625 
Q 54.890625 11.625 47.5625 5.09375 
Q 40.234375 -1.421875 26.90625 -1.421875 
Q 22.3125 -1.421875 17.546875 -0.640625 
Q 12.796875 0.140625 7.71875 1.703125 
L 7.71875 11.625 
Q 12.109375 9.234375 16.796875 8.0625 
Q 21.484375 6.890625 26.703125 6.890625 
Q 35.15625 6.890625 40.078125 11.328125 
Q 45.015625 15.765625 45.015625 23.390625 
Q 45.015625 31 40.078125 35.4375 
Q 35.15625 39.890625 26.703125 39.890625 
Q 22.75 39.890625 18.8125 39.015625 
Q 14.890625 38.140625 10.796875 36.28125 
z
" id="DejaVuSans-35"/>
     </defs>
     <g transform="translate(160.031928 68.959172)scale(0.0694 -0.0694)">
      <use xlink:href="#DejaVuSans-47"/>
      <use x="77.490234" xlink:href="#DejaVuSans-72"/>
      <use x="118.603516" xlink:href="#DejaVuSans-69"/>
      <use x="146.386719" xlink:href="#DejaVuSans-64"/>
      <use x="209.863281" xlink:href="#DejaVuSans-20"/>
      <use x="241.650391" xlink:href="#DejaVuSans-31"/>
      <use x="305.273438" xlink:href="#DejaVuSans-35"/>
      <use x="368.896484" xlink:href="#DejaVuSans-30"/>
      <use x="432.519531" xlink:href="#DejaVuSans-30"/>
      <use x="496.142578" xlink:href="#DejaVuSans-78"/>
      <use x="555.322266" xlink:href="#DejaVuSans-31"/>
      <use x="618.945312" xlink:href="#DejaVuSans-35"/>
      <use x="682.568359" xlink:href="#DejaVuSans-30"/>
      <use x="746.191406" xlink:href="#DejaVuSans-30"/>
     </g>
    </g>
   </g>
  </g>
  <g id="axes_2">
   <g id="patch_8">
    <path d="M 272.72 136.24 
L 447.48 136.24 
L 447.48 26.88 
L 272.72 26.88 
z
" style="fill:#ffffff;"/>
   </g>
   <g id="matplotlib.axis_3">
    <g id="xtick_5">
     <g id="line2d_27">
      <path clip-path="url(#pd1905f9b47)" d="M 280.663636 136.24 
L 280.663636 26.88 
" style="fill:none;stroke:#b0b0b0;stroke-linecap:square;stroke-width:0.8;"/>
     </g>
     <g id="line2d_28">
      <g>
       <use style="stroke:#000000;stroke-width:0.8;" x="280.663636" xlink:href="#mc999be36e3" y="136.24"/>
      </g>
     </g>
     <g id="text_15">
      <!-- 1 -->
      <g transform="translate(277.482386 150.838437)scale(0.1 -0.1)">
       <use xlink:href="#DejaVuSans-31"/>
      </g>
     </g>
    </g>
    <g id="xtick_6">
     <g id="line2d_29">
      <path clip-path="url(#pd1905f9b47)" d="M 333.621212 136.24 
L 333.621212 26.88 
" style="fill:none;stroke:#b0b0b0;stroke-linecap:square;stroke-width:0.8;"/>
     </g>
     <g id="line2d_30">
      <g>
       <use style="stroke:#000000;stroke-width:0.8;" x="333.621212" xlink:href="#mc999be36e3" y="136.24"/>
      </g>
     </g>
     <g id="text_16">
      <!-- 2 -->
      <g transform="translate(330.439962 150.838437)scale(0.1 -0.1)">
       <use xlink:href="#DejaVuSans-32"/>
      </g>
     </g>
    </g>
    <g id="xtick_7">
     <g id="line2d_31">
      <path clip-path="url(#pd1905f9b47)" d="M 386.578788 136.24 
L 386.578788 26.88 
" style="fill:none;stroke:#b0b0b0;stroke-linecap:square;stroke-width:0.8;"/>
     </g>
     <g id="line2d_32">
      <g>
       <use style="stroke:#000000;stroke-width:0.8;" x="386.578788" xlink:href="#mc999be36e3" y="136.24"/>
      </g>
     </g>
     <g id="text_17">
      <!-- 3 -->
      <g transform="translate(383.397538 150.838437)scale(0.1 -0.1)">
       <use xlink:href="#DejaVuSans-33"/>
      </g>
     </g>
    </g>
    <g id="xtick_8">
     <g id="line2d_33">
      <path clip-path="url(#pd1905f9b47)" d="M 439.536364 136.24 
L 439.536364 26.88 
" style="fill:none;stroke:#b0b0b0;stroke-linecap:square;stroke-width:0.8;"/>
     </g>
     <g id="line2d_34">
      <g>
       <use style="stroke:#000000;stroke-width:0.8;" x="439.536364" xlink:href="#mc999be36e3" y="136.24"/>
      </g>
     </g>
     <g id="text_18">
      <!-- 4 -->
      <g transform="translate(436.355114 150.838437)scale(0.1 -0.1)">
       <use xlink:href="#DejaVuSans-34"/>
      </g>
     </g>
    </g>
    <g id="text_19">
     <!-- threads -->
     <g transform="translate(340.997656 164.516562)scale(0.1 -0.1)">
      <use xlink:href="#DejaVuSans-74"/>
      <use x="39.208984" xlink:href="#DejaVuSans-68"/>
      <use x="102.587891" xlink:href="#DejaVuSans-72"/>
      <use x="143.669922" xlink:href="#DejaVuSans-65"/>
      <use x="205.193359" xlink:href="#DejaVuSans-61"/>
      <use x="266.472656" xlink:href="#DejaVuSans-64"/>
      <use x="329.949219" xlink:href="#DejaVuSans-73"/>
     </g>
    </g>
   </g>
   <g id="matplotlib.axis_4">
    <g id="ytick_4">
     <g id="line2d_35">
      <path clip-path="url(#pd1905f9b47)" d="M 272.72 131.268082 
L 447.48 131.268082 
" style="fill:none;stroke:#b0b0b0;stroke-linecap:square;stroke-width:0.8;"/>
     </g>
     <g id="line2d_36">
      <g>
       <use style="stroke:#000000;stroke-width:0.8;" x="272.72" xlink:href="#mc9df75ab00" y="131.268082"/>
      </g>
     </g>
     <g id="text_20">
      <!-- 1 -->
      <g transform="translate(259.3575 135.067301)scale(0.1 -0.1)">
       <use xlink:href="#DejaVuSans-31"/>
      </g>
     </g>
    </g>
    <g id="ytick_5">
     <g id="line2d_37">
      <path clip-path="url(#pd1905f9b47)" d="M 272.72 89.22926 
L 447.48 89.22926 
" style="fill:none;stroke:#b0b0b0;stroke-linecap:square;stroke-width:0.8;"/>
     </g>
     <g id="line2d_38">
      <g>
       <use style="stroke:#000000;stroke-width:0.8;" x="272.72" xlink:href="#mc9df75ab00" y="89.22926"/>
      </g>
     </g>
     <g id="text_21">
      <!-- 2 -->
      <g transform="translate(259.3575 93.028479)scale(0.1 -0.1)">
       <use xlink:href="#DejaVuSans-32"/>
      </g>
     </g>
    </g>
    <g id="ytick_6">
     <g id="line2d_39">
      <path clip-path="url(#pd1905f9b47)" d="M 272.72 47.190439 
L 447.48 47.190439 
" style="fill:none;stroke:#b0b0b0;stroke-linecap:square;stroke-width:0.8;"/>
     </g>
     <g id="line2d_40">
      <g>
       <use style="stroke:#000000;stroke-width:0.8;" x="272.72" xlink:href="#mc9df75ab00" y="47.190439"/>
      </g>
     </g>
     <g id="text_22">
      <!-- 3 -->
      <g transform="translate(259.3575 50.989657)scale(0.1 -0.1)">
       <use xlink:href="#DejaVuSans-33"/>
      </g>
     </g>
    </g>
    <g id="text_23">
     <!-- acceleration -->
     <defs>
      <path d="M 48.78125 52.59375 
L 48.78125 44.1875 
Q 44.96875 46.296875 41.140625 47.34375 
Q 37.3125 48.390625 33.40625 48.390625 
Q 24.65625 48.390625 19.8125 42.84375 
Q 14.984375 37.3125 14.984375 27.296875 
Q 14.984375 17.28125 19.8125 11.734375 
Q 24.65625 6.203125 33.40625 6.203125 
Q 37.3125 6.203125 41.140625 7.25 
Q 44.96875 8.296875 48.78125 10.40625 
L 48.78125 2.09375 
Q 45.015625 0.34375 40.984375 -0.53125 
Q 36.96875 -1.421875 32.421875 -1.421875 
Q 20.0625 -1.421875 12.78125 6.34375 
Q 5.515625 14.109375 5.515625 27.296875 
Q 5.515625 40.671875 12.859375 48.328125 
Q 20.21875 56 33.015625 56 
Q 37.15625 56 41.109375 55.140625 
Q 45.0625 54.296875 48.78125 52.59375 
z
" id="DejaVuSans-63"/>
      <path d="M 9.421875 75.984375 
L 18.40625 75.984375 
L 18.40625 0 
L 9.421875 0 
z
" id="DejaVuSans-6c"/>
      <path d="M 30.609375 48.390625 
Q 23.390625 48.390625 19.1875 42.75 
Q 14.984375 37.109375 14.984375 27.296875 
Q 14.984375 17.484375 19.15625 11.84375 
Q 23.34375 6.203125 30.609375 6.203125 
Q 37.796875 6.203125 41.984375 11.859375 
Q 46.1875 17.53125 46.1875 27.296875 
Q 46.1875 37.015625 41.984375 42.703125 
Q 37.796875 48.390625 30.609375 48.390625 
z
M 30.609375 56 
Q 42.328125 56 49.015625 48.375 
Q 55.71875 40.765625 55.71875 27.296875 
Q 55.71875 13.875 49.015625 6.21875 
Q 42.328125 -1.421875 30.609375 -1.421875 
Q 18.84375 -1.421875 12.171875 6.21875 
Q 5.515625 13.875 5.515625 27.296875 
Q 5.515625 40.765625 12.171875 48.375 
Q 18.84375 56 30.609375 56 
z
" id="DejaVuSans-6f"/>
     </defs>
     <g transform="translate(253.277812 112.361562)rotate(-90)scale(0.1 -0.1)">
      <use xlink:href="#DejaVuSans-61"/>
      <use x="61.279297" xlink:href="#DejaVuSans-63"/>
      <use x="116.259766" xlink:href="#DejaVuSans-63"/>
      <use x="171.240234" xlink:href="#DejaVuSans-65"/>
      <use x="232.763672" xlink:href="#DejaVuSans-6c"/>
      <use x="260.546875" xlink:href="#DejaVuSans-65"/>
      <use x="322.070312" xlink:href="#DejaVuSans-72"/>
      <use x="363.183594" xlink:href="#DejaVuSans-61"/>
      <use x="424.462891" xlink:href="#DejaVuSans-74"/>
      <use x="463.671875" xlink:href="#DejaVuSans-69"/>
      <use x="491.455078" xlink:href="#DejaVuSans-6f"/>
      <use x="552.636719" xlink:href="#DejaVuSans-6e"/>
     </g>
    </g>
   </g>
   <g id="line2d_41">
    <path clip-path="url(#pd1905f9b47)" d="M 280.663636 131.22965 
L 333.621212 123.718175 
L 386.578788 115.831867 
L 439.536364 115.979029 
" style="fill:none;stroke:#1f77b4;stroke-linecap:square;stroke-width:1.5;"/>
    <g clip-path="url(#pd1905f9b47)">
     <use style="fill:#1f77b4;stroke:#1f77b4;" x="280.663636" xlink:href="#m8f4bba484c" y="131.22965"/>
     <use style="fill:#1f77b4;stroke:#1f77b4;" x="333.621212" xlink:href="#m8f4bba484c" y="123.718175"/>
     <use style="fill:#1f77b4;stroke:#1f77b4;" x="386.578788" xlink:href="#m8f4bba484c" y="115.831867"/>
     <use style="fill:#1f77b4;stroke:#1f77b4;" x="439.536364" xlink:href="#m8f4bba484c" y="115.979029"/>
    </g>
   </g>
   <g id="line2d_42">
    <path clip-path="url(#pd1905f9b47)" d="M 280.663636 131.269091 
L 333.621212 95.683077 
L 386.578788 72.247093 
L 439.536364 55.736646 
" style="fill:none;stroke:#ff7f0e;stroke-linecap:square;stroke-width:1.5;"/>
    <g clip-path="url(#pd1905f9b47)">
     <use style="fill:#ff7f0e;stroke:#ff7f0e;" x="280.663636" xlink:href="#m7c2fb3ee7e" y="131.269091"/>
     <use style="fill:#ff7f0e;stroke:#ff7f0e;" x="333.621212" xlink:href="#m7c2fb3ee7e" y="95.683077"/>
     <use style="fill:#ff7f0e;stroke:#ff7f0e;" x="386.578788" xlink:href="#m7c2fb3ee7e" y="72.247093"/>
     <use style="fill:#ff7f0e;stroke:#ff7f0e;" x="439.536364" xlink:href="#m7c2fb3ee7e" y="55.736646"/>
    </g>
   </g>
   <g id="line2d_43">
    <path clip-path="url(#pd1905f9b47)" d="M 280.663636 131.26905 
L 333.621212 91.686275 
L 386.578788 60.870818 
L 439.536364 41.169961 
" style="fill:none;stroke:#2ca02c;stroke-linecap:square;stroke-width:1.5;"/>
    <g clip-path="url(#pd1905f9b47)">
     <use style="fill:#2ca02c;stroke:#2ca02c;" x="280.663636" xlink:href="#mbc9deb2a6a" y="131.26905"/>
     <use style="fill:#2ca02c;stroke:#2ca02c;" x="333.621212" xlink:href="#mbc9deb2a6a" y="91.686275"/>
     <use style="fill:#2ca02c;stroke:#2ca02c;" x="386.578788" xlink:href="#mbc9deb2a6a" y="60.870818"/>
     <use style="fill:#2ca02c;stroke:#2ca02c;" x="439.536364" xlink:href="#mbc9deb2a6a" y="41.169961"/>
    </g>
   </g>
   <g id="line2d_44">
    <path clip-path="url(#pd1905f9b47)" d="M 280.663636 131.268194 
L 333.621212 90.913699 
L 386.578788 53.959114 
L 439.536364 31.850909 
" style="fill:none;stroke:#d62728;stroke-linecap:square;stroke-width:1.5;"/>
    <g clip-path="url(#pd1905f9b47)">
     <use style="fill:#d62728;stroke:#d62728;" x="280.663636" xlink:href="#mf61bd9cb56" y="131.268194"/>
     <use style="fill:#d62728;stroke:#d62728;" x="333.621212" xlink:href="#mf61bd9cb56" y="90.913699"/>
     <use style="fill:#d62728;stroke:#d62728;" x="386.578788" xlink:href="#mf61bd9cb56" y="53.959114"/>
     <use style="fill:#d62728;stroke:#d62728;" x="439.536364" xlink:href="#mf61bd9cb56" y="31.850909"/>
    </g>
   </g>
   <g id="patch_9">
    <path d="M 272.72 136.24 
L 272.72 26.88 
" style="fill:none;stroke:#000000;stroke-linecap:square;stroke-linejoin:miter;stroke-width:0.8;"/>
   </g>
   <g id="patch_10">
    <path d="M 447.48 136.24 
L 447.48 26.88 
" style="fill:none;stroke:#000000;stroke-linecap:square;stroke-linejoin:miter;stroke-width:0.8;"/>
   </g>
   <g id="patch_11">
    <path d="M 272.72 136.24 
L 447.48 136.24 
" style="fill:none;stroke:#000000;stroke-linecap:square;stroke-linejoin:miter;stroke-width:0.8;"/>
   </g>
   <g id="patch_12">
    <path d="M 272.72 26.88 
L 447.48 26.88 
" style="fill:none;stroke:#000000;stroke-linecap:square;stroke-linejoin:miter;stroke-width:0.8;"/>
   </g>
   <g id="text_24">
    <!-- Acceleration -->
    <defs>
     <path d="M 34.1875 63.1875 
L 20.796875 26.90625 
L 47.609375 26.90625 
z
M 28.609375 72.90625 
L 39.796875 72.90625 
L 67.578125 0 
L 57.328125 0 
L 50.6875 18.703125 
L 17.828125 18.703125 
L 11.1875 0 
L 0.78125 0 
z
" id="DejaVuSans-41"/>
    </defs>
    <g transform="translate(322.711562 20.88)scale(0.12 -0.12)">
     <use xlink:href="#DejaVuSans-41"/>
     <use x="68.392578" xlink:href="#DejaVuSans-63"/>
     <use x="123.373047" xlink:href="#DejaVuSans-63"/>
     <use x="178.353516" xlink:href="#DejaVuSans-65"/>
     <use x="239.876953" xlink:href="#DejaVuSans-6c"/>
     <use x="267.660156" xlink:href="#DejaVuSans-65"/>
     <use x="329.183594" xlink:href="#DejaVuSans-72"/>
     <use x="370.296875" xlink:href="#DejaVuSans-61"/>
     <use x="431.576172" xlink:href="#DejaVuSans-74"/>
     <use x="470.785156" xlink:href="#DejaVuSans-69"/>
     <use x="498.568359" xlink:href="#DejaVuSans-6f"/>
     <use x="559.75" xlink:href="#DejaVuSans-6e"/>
    </g>
   </g>
   <g id="legend_2">
    <g id="patch_13">
     <path d="M 277.578 73.178475 
L 355.988072 73.178475 
Q 357.376072 73.178475 357.376072 71.790475 
L 357.376072 31.738 
Q 357.376072 30.35 355.988072 30.35 
L 277.578 30.35 
Q 276.19 30.35 276.19 31.738 
L 276.19 71.790475 
Q 276.19 73.178475 277.578 73.178475 
z
" style="fill:#ffffff;opacity:0.8;stroke:#cccccc;stroke-linejoin:miter;"/>
    </g>
    <g id="line2d_45">
     <path d="M 278.966 35.970316 
L 292.846 35.970316 
" style="fill:none;stroke:#1f77b4;stroke-linecap:square;stroke-width:1.5;"/>
    </g>
    <g id="line2d_46">
     <g>
      <use style="fill:#1f77b4;stroke:#1f77b4;" x="285.906" xlink:href="#m8f4bba484c" y="35.970316"/>
     </g>
    </g>
    <g id="text_25">
     <!-- Grid 100x100 -->
     <g transform="translate(298.398 38.399316)scale(0.0694 -0.0694)">
      <use xlink:href="#DejaVuSans-47"/>
      <use x="77.490234" xlink:href="#DejaVuSans-72"/>
      <use x="118.603516" xlink:href="#DejaVuSans-69"/>
      <use x="146.386719" xlink:href="#DejaVuSans-64"/>
      <use x="209.863281" xlink:href="#DejaVuSans-20"/>
      <use x="241.650391" xlink:href="#DejaVuSans-31"/>
      <use x="305.273438" xlink:href="#DejaVuSans-30"/>
      <use x="368.896484" xlink:href="#DejaVuSans-30"/>
      <use x="432.519531" xlink:href="#DejaVuSans-78"/>
      <use x="491.699219" xlink:href="#DejaVuSans-31"/>
      <use x="555.322266" xlink:href="#DejaVuSans-30"/>
      <use x="618.945312" xlink:href="#DejaVuSans-30"/>
     </g>
    </g>
    <g id="line2d_47">
     <path d="M 278.966 46.156934 
L 292.846 46.156934 
" style="fill:none;stroke:#ff7f0e;stroke-linecap:square;stroke-width:1.5;"/>
    </g>
    <g id="line2d_48">
     <g>
      <use style="fill:#ff7f0e;stroke:#ff7f0e;" x="285.906" xlink:href="#m7c2fb3ee7e" y="46.156934"/>
     </g>
    </g>
    <g id="text_26">
     <!-- Grid 600x600 -->
     <g transform="translate(298.398 48.585934)scale(0.0694 -0.0694)">
      <use xlink:href="#DejaVuSans-47"/>
      <use x="77.490234" xlink:href="#DejaVuSans-72"/>
      <use x="118.603516" xlink:href="#DejaVuSans-69"/>
      <use x="146.386719" xlink:href="#DejaVuSans-64"/>
      <use x="209.863281" xlink:href="#DejaVuSans-20"/>
      <use x="241.650391" xlink:href="#DejaVuSans-36"/>
      <use x="305.273438" xlink:href="#DejaVuSans-30"/>
      <use x="368.896484" xlink:href="#DejaVuSans-30"/>
      <use x="432.519531" xlink:href="#DejaVuSans-78"/>
      <use x="491.699219" xlink:href="#DejaVuSans-36"/>
      <use x="555.322266" xlink:href="#DejaVuSans-30"/>
      <use x="618.945312" xlink:href="#DejaVuSans-30"/>
     </g>
    </g>
    <g id="line2d_49">
     <path d="M 278.966 56.343553 
L 292.846 56.343553 
" style="fill:none;stroke:#2ca02c;stroke-linecap:square;stroke-width:1.5;"/>
    </g>
    <g id="line2d_50">
     <g>
      <use style="fill:#2ca02c;stroke:#2ca02c;" x="285.906" xlink:href="#mbc9deb2a6a" y="56.343553"/>
     </g>
    </g>
    <g id="text_27">
     <!-- Grid 1000x1000 -->
     <g transform="translate(298.398 58.772553)scale(0.0694 -0.0694)">
      <use xlink:href="#DejaVuSans-47"/>
      <use x="77.490234" xlink:href="#DejaVuSans-72"/>
      <use x="118.603516" xlink:href="#DejaVuSans-69"/>
      <use x="146.386719" xlink:href="#DejaVuSans-64"/>
      <use x="209.863281" xlink:href="#DejaVuSans-20"/>
      <use x="241.650391" xlink:href="#DejaVuSans-31"/>
      <use x="305.273438" xlink:href="#DejaVuSans-30"/>
      <use x="368.896484" xlink:href="#DejaVuSans-30"/>
      <use x="432.519531" xlink:href="#DejaVuSans-30"/>
      <use x="496.142578" xlink:href="#DejaVuSans-78"/>
      <use x="555.322266" xlink:href="#DejaVuSans-31"/>
      <use x="618.945312" xlink:href="#DejaVuSans-30"/>
      <use x="682.568359" xlink:href="#DejaVuSans-30"/>
      <use x="746.191406" xlink:href="#DejaVuSans-30"/>
     </g>
    </g>
    <g id="line2d_51">
     <path d="M 278.966 66.530172 
L 292.846 66.530172 
" style="fill:none;stroke:#d62728;stroke-linecap:square;stroke-width:1.5;"/>
    </g>
    <g id="line2d_52">
     <g>
      <use style="fill:#d62728;stroke:#d62728;" x="285.906" xlink:href="#mf61bd9cb56" y="66.530172"/>
     </g>
    </g>
    <g id="text_28">
     <!-- Grid 1500x1500 -->
     <g transform="translate(298.398 68.959172)scale(0.0694 -0.0694)">
      <use xlink:href="#DejaVuSans-47"/>
      <use x="77.490234" xlink:href="#DejaVuSans-72"/>
      <use x="118.603516" xlink:href="#DejaVuSans-69"/>
      <use x="146.386719" xlink:href="#DejaVuSans-64"/>
      <use x="209.863281" xlink:href="#DejaVuSans-20"/>
      <use x="241.650391" xlink:href="#DejaVuSans-31"/>
      <use x="305.273438" xlink:href="#DejaVuSans-35"/>
      <use x="368.896484" xlink:href="#DejaVuSans-30"/>
      <use x="432.519531" xlink:href="#DejaVuSans-30"/>
      <use x="496.142578" xlink:href="#DejaVuSans-78"/>
      <use x="555.322266" xlink:href="#DejaVuSans-31"/>
      <use x="618.945312" xlink:href="#DejaVuSans-35"/>
      <use x="682.568359" xlink:href="#DejaVuSans-30"/>
      <use x="746.191406" xlink:href="#DejaVuSans-30"/>
     </g>
    </g>
   </g>
  </g>
  <g id="axes_3">
   <g id="patch_14">
    <path d="M 47.72 303.64 
L 222.48 303.64 
L 222.48 194.28 
L 47.72 194.28 
z
" style="fill:#ffffff;"/>
   </g>
   <g id="matplotlib.axis_5">
    <g id="xtick_9">
     <g id="line2d_53">
      <path clip-path="url(#p32f49ea87c)" d="M 55.663636 303.64 
L 55.663636 194.28 
" style="fill:none;stroke:#b0b0b0;stroke-linecap:square;stroke-width:0.8;"/>
     </g>
     <g id="line2d_54">
      <g>
       <use style="stroke:#000000;stroke-width:0.8;" x="55.663636" xlink:href="#mc999be36e3" y="303.64"/>
      </g>
     </g>
     <g id="text_29">
      <!-- 1 -->
      <g transform="translate(52.482386 318.238438)scale(0.1 -0.1)">
       <use xlink:href="#DejaVuSans-31"/>
      </g>
     </g>
    </g>
    <g id="xtick_10">
     <g id="line2d_55">
      <path clip-path="url(#p32f49ea87c)" d="M 108.621212 303.64 
L 108.621212 194.28 
" style="fill:none;stroke:#b0b0b0;stroke-linecap:square;stroke-width:0.8;"/>
     </g>
     <g id="line2d_56">
      <g>
       <use style="stroke:#000000;stroke-width:0.8;" x="108.621212" xlink:href="#mc999be36e3" y="303.64"/>
      </g>
     </g>
     <g id="text_30">
      <!-- 2 -->
      <g transform="translate(105.439962 318.238438)scale(0.1 -0.1)">
       <use xlink:href="#DejaVuSans-32"/>
      </g>
     </g>
    </g>
    <g id="xtick_11">
     <g id="line2d_57">
      <path clip-path="url(#p32f49ea87c)" d="M 161.578788 303.64 
L 161.578788 194.28 
" style="fill:none;stroke:#b0b0b0;stroke-linecap:square;stroke-width:0.8;"/>
     </g>
     <g id="line2d_58">
      <g>
       <use style="stroke:#000000;stroke-width:0.8;" x="161.578788" xlink:href="#mc999be36e3" y="303.64"/>
      </g>
     </g>
     <g id="text_31">
      <!-- 3 -->
      <g transform="translate(158.397538 318.238438)scale(0.1 -0.1)">
       <use xlink:href="#DejaVuSans-33"/>
      </g>
     </g>
    </g>
    <g id="xtick_12">
     <g id="line2d_59">
      <path clip-path="url(#p32f49ea87c)" d="M 214.536364 303.64 
L 214.536364 194.28 
" style="fill:none;stroke:#b0b0b0;stroke-linecap:square;stroke-width:0.8;"/>
     </g>
     <g id="line2d_60">
      <g>
       <use style="stroke:#000000;stroke-width:0.8;" x="214.536364" xlink:href="#mc999be36e3" y="303.64"/>
      </g>
     </g>
     <g id="text_32">
      <!-- 4 -->
      <g transform="translate(211.355114 318.238438)scale(0.1 -0.1)">
       <use xlink:href="#DejaVuSans-34"/>
      </g>
     </g>
    </g>
    <g id="text_33">
     <!-- threads -->
     <g transform="translate(115.997656 331.916562)scale(0.1 -0.1)">
      <use xlink:href="#DejaVuSans-74"/>
      <use x="39.208984" xlink:href="#DejaVuSans-68"/>
      <use x="102.587891" xlink:href="#DejaVuSans-72"/>
      <use x="143.669922" xlink:href="#DejaVuSans-65"/>
      <use x="205.193359" xlink:href="#DejaVuSans-61"/>
      <use x="266.472656" xlink:href="#DejaVuSans-64"/>
      <use x="329.949219" xlink:href="#DejaVuSans-73"/>
     </g>
    </g>
   </g>
   <g id="matplotlib.axis_6">
    <g id="ytick_7">
     <g id="line2d_61">
      <path clip-path="url(#p32f49ea87c)" d="M 47.72 289.769884 
L 222.48 289.769884 
" style="fill:none;stroke:#b0b0b0;stroke-linecap:square;stroke-width:0.8;"/>
     </g>
     <g id="line2d_62">
      <g>
       <use style="stroke:#000000;stroke-width:0.8;" x="47.72" xlink:href="#mc9df75ab00" y="289.769884"/>
      </g>
     </g>
     <g id="text_34">
      <!-- 0.4 -->
      <defs>
       <path d="M 10.6875 12.40625 
L 21 12.40625 
L 21 0 
L 10.6875 0 
z
" id="DejaVuSans-2e"/>
      </defs>
      <g transform="translate(24.816875 293.569103)scale(0.1 -0.1)">
       <use xlink:href="#DejaVuSans-30"/>
       <use x="63.623047" xlink:href="#DejaVuSans-2e"/>
       <use x="95.410156" xlink:href="#DejaVuSans-34"/>
      </g>
     </g>
    </g>
    <g id="ytick_8">
     <g id="line2d_63">
      <path clip-path="url(#p32f49ea87c)" d="M 47.72 259.642796 
L 222.48 259.642796 
" style="fill:none;stroke:#b0b0b0;stroke-linecap:square;stroke-width:0.8;"/>
     </g>
     <g id="line2d_64">
      <g>
       <use style="stroke:#000000;stroke-width:0.8;" x="47.72" xlink:href="#mc9df75ab00" y="259.642796"/>
      </g>
     </g>
     <g id="text_35">
      <!-- 0.6 -->
      <g transform="translate(24.816875 263.442015)scale(0.1 -0.1)">
       <use xlink:href="#DejaVuSans-30"/>
       <use x="63.623047" xlink:href="#DejaVuSans-2e"/>
       <use x="95.410156" xlink:href="#DejaVuSans-36"/>
      </g>
     </g>
    </g>
    <g id="ytick_9">
     <g id="line2d_65">
      <path clip-path="url(#p32f49ea87c)" d="M 47.72 229.515709 
L 222.48 229.515709 
" style="fill:none;stroke:#b0b0b0;stroke-linecap:square;stroke-width:0.8;"/>
     </g>
     <g id="line2d_66">
      <g>
       <use style="stroke:#000000;stroke-width:0.8;" x="47.72" xlink:href="#mc9df75ab00" y="229.515709"/>
      </g>
     </g>
     <g id="text_36">
      <!-- 0.8 -->
      <defs>
       <path d="M 31.78125 34.625 
Q 24.75 34.625 20.71875 30.859375 
Q 16.703125 27.09375 16.703125 20.515625 
Q 16.703125 13.921875 20.71875 10.15625 
Q 24.75 6.390625 31.78125 6.390625 
Q 38.8125 6.390625 42.859375 10.171875 
Q 46.921875 13.96875 46.921875 20.515625 
Q 46.921875 27.09375 42.890625 30.859375 
Q 38.875 34.625 31.78125 34.625 
z
M 21.921875 38.8125 
Q 15.578125 40.375 12.03125 44.71875 
Q 8.5 49.078125 8.5 55.328125 
Q 8.5 64.0625 14.71875 69.140625 
Q 20.953125 74.21875 31.78125 74.21875 
Q 42.671875 74.21875 48.875 69.140625 
Q 55.078125 64.0625 55.078125 55.328125 
Q 55.078125 49.078125 51.53125 44.71875 
Q 48 40.375 41.703125 38.8125 
Q 48.828125 37.15625 52.796875 32.3125 
Q 56.78125 27.484375 56.78125 20.515625 
Q 56.78125 9.90625 50.3125 4.234375 
Q 43.84375 -1.421875 31.78125 -1.421875 
Q 19.734375 -1.421875 13.25 4.234375 
Q 6.78125 9.90625 6.78125 20.515625 
Q 6.78125 27.484375 10.78125 32.3125 
Q 14.796875 37.15625 21.921875 38.8125 
z
M 18.3125 54.390625 
Q 18.3125 48.734375 21.84375 45.5625 
Q 25.390625 42.390625 31.78125 42.390625 
Q 38.140625 42.390625 41.71875 45.5625 
Q 45.3125 48.734375 45.3125 54.390625 
Q 45.3125 60.0625 41.71875 63.234375 
Q 38.140625 66.40625 31.78125 66.40625 
Q 25.390625 66.40625 21.84375 63.234375 
Q 18.3125 60.0625 18.3125 54.390625 
z
" id="DejaVuSans-38"/>
      </defs>
      <g transform="translate(24.816875 233.314927)scale(0.1 -0.1)">
       <use xlink:href="#DejaVuSans-30"/>
       <use x="63.623047" xlink:href="#DejaVuSans-2e"/>
       <use x="95.410156" xlink:href="#DejaVuSans-38"/>
      </g>
     </g>
    </g>
    <g id="ytick_10">
     <g id="line2d_67">
      <path clip-path="url(#p32f49ea87c)" d="M 47.72 199.388621 
L 222.48 199.388621 
" style="fill:none;stroke:#b0b0b0;stroke-linecap:square;stroke-width:0.8;"/>
     </g>
     <g id="line2d_68">
      <g>
       <use style="stroke:#000000;stroke-width:0.8;" x="47.72" xlink:href="#mc9df75ab00" y="199.388621"/>
      </g>
     </g>
     <g id="text_37">
      <!-- 1.0 -->
      <g transform="translate(24.816875 203.18784)scale(0.1 -0.1)">
       <use xlink:href="#DejaVuSans-31"/>
       <use x="63.623047" xlink:href="#DejaVuSans-2e"/>
       <use x="95.410156" xlink:href="#DejaVuSans-30"/>
      </g>
     </g>
    </g>
    <g id="text_38">
     <!-- efficiency -->
     <defs>
      <path d="M 37.109375 75.984375 
L 37.109375 68.5 
L 28.515625 68.5 
Q 23.6875 68.5 21.796875 66.546875 
Q 19.921875 64.59375 19.921875 59.515625 
L 19.921875 54.6875 
L 34.71875 54.6875 
L 34.71875 47.703125 
L 19.921875 47.703125 
L 19.921875 0 
L 10.890625 0 
L 10.890625 47.703125 
L 2.296875 47.703125 
L 2.296875 54.6875 
L 10.890625 54.6875 
L 10.890625 58.5 
Q 10.890625 67.625 15.140625 71.796875 
Q 19.390625 75.984375 28.609375 75.984375 
z
" id="DejaVuSans-66"/>
      <path d="M 32.171875 -5.078125 
Q 28.375 -14.84375 24.75 -17.8125 
Q 21.140625 -20.796875 15.09375 -20.796875 
L 7.90625 -20.796875 
L 7.90625 -13.28125 
L 13.1875 -13.28125 
Q 16.890625 -13.28125 18.9375 -11.515625 
Q 21 -9.765625 23.484375 -3.21875 
L 25.09375 0.875 
L 2.984375 54.6875 
L 12.5 54.6875 
L 29.59375 11.921875 
L 46.6875 54.6875 
L 56.203125 54.6875 
z
" id="DejaVuSans-79"/>
     </defs>
     <g transform="translate(18.737188 273.038125)rotate(-90)scale(0.1 -0.1)">
      <use xlink:href="#DejaVuSans-65"/>
      <use x="61.523438" xlink:href="#DejaVuSans-66"/>
      <use x="96.728516" xlink:href="#DejaVuSans-66"/>
      <use x="131.933594" xlink:href="#DejaVuSans-69"/>
      <use x="159.716797" xlink:href="#DejaVuSans-63"/>
      <use x="214.697266" xlink:href="#DejaVuSans-69"/>
      <use x="242.480469" xlink:href="#DejaVuSans-65"/>
      <use x="304.003906" xlink:href="#DejaVuSans-6e"/>
      <use x="367.382812" xlink:href="#DejaVuSans-63"/>
      <use x="422.363281" xlink:href="#DejaVuSans-79"/>
     </g>
    </g>
   </g>
   <g id="line2d_69">
    <path clip-path="url(#p32f49ea87c)" d="M 55.663636 199.250909 
L 108.621212 261.179753 
L 161.578788 281.374996 
L 214.536364 298.669091 
" style="fill:none;stroke:#1f77b4;stroke-linecap:square;stroke-width:1.5;"/>
    <g clip-path="url(#p32f49ea87c)">
     <use style="fill:#1f77b4;stroke:#1f77b4;" x="55.663636" xlink:href="#m8f4bba484c" y="199.250909"/>
     <use style="fill:#1f77b4;stroke:#1f77b4;" x="108.621212" xlink:href="#m8f4bba484c" y="261.179753"/>
     <use style="fill:#1f77b4;stroke:#1f77b4;" x="161.578788" xlink:href="#m8f4bba484c" y="281.374996"/>
     <use style="fill:#1f77b4;stroke:#1f77b4;" x="214.536364" xlink:href="#m8f4bba484c" y="298.669091"/>
    </g>
   </g>
   <g id="line2d_70">
    <path clip-path="url(#p32f49ea87c)" d="M 55.663636 199.392237 
L 108.621212 210.951427 
L 161.578788 229.316673 
L 214.536364 244.703272 
" style="fill:none;stroke:#ff7f0e;stroke-linecap:square;stroke-width:1.5;"/>
    <g clip-path="url(#p32f49ea87c)">
     <use style="fill:#ff7f0e;stroke:#ff7f0e;" x="55.663636" xlink:href="#m7c2fb3ee7e" y="199.392237"/>
     <use style="fill:#ff7f0e;stroke:#ff7f0e;" x="108.621212" xlink:href="#m7c2fb3ee7e" y="210.951427"/>
     <use style="fill:#ff7f0e;stroke:#ff7f0e;" x="161.578788" xlink:href="#m7c2fb3ee7e" y="229.316673"/>
     <use style="fill:#ff7f0e;stroke:#ff7f0e;" x="214.536364" xlink:href="#m7c2fb3ee7e" y="244.703272"/>
    </g>
   </g>
   <g id="line2d_71">
    <path clip-path="url(#p32f49ea87c)" d="M 55.663636 199.39209 
L 108.621212 203.790666 
L 161.578788 215.728676 
L 214.536364 231.654267 
" style="fill:none;stroke:#2ca02c;stroke-linecap:square;stroke-width:1.5;"/>
    <g clip-path="url(#p32f49ea87c)">
     <use style="fill:#2ca02c;stroke:#2ca02c;" x="55.663636" xlink:href="#mbc9deb2a6a" y="199.39209"/>
     <use style="fill:#2ca02c;stroke:#2ca02c;" x="108.621212" xlink:href="#mbc9deb2a6a" y="203.790666"/>
     <use style="fill:#2ca02c;stroke:#2ca02c;" x="161.578788" xlink:href="#mbc9deb2a6a" y="215.728676"/>
     <use style="fill:#2ca02c;stroke:#2ca02c;" x="214.536364" xlink:href="#mbc9deb2a6a" y="231.654267"/>
    </g>
   </g>
   <g id="line2d_72">
    <path clip-path="url(#p32f49ea87c)" d="M 55.663636 199.389024 
L 108.621212 202.406501 
L 161.578788 207.47323 
L 214.536364 223.306154 
" style="fill:none;stroke:#d62728;stroke-linecap:square;stroke-width:1.5;"/>
    <g clip-path="url(#p32f49ea87c)">
     <use style="fill:#d62728;stroke:#d62728;" x="55.663636" xlink:href="#mf61bd9cb56" y="199.389024"/>
     <use style="fill:#d62728;stroke:#d62728;" x="108.621212" xlink:href="#mf61bd9cb56" y="202.406501"/>
     <use style="fill:#d62728;stroke:#d62728;" x="161.578788" xlink:href="#mf61bd9cb56" y="207.47323"/>
     <use style="fill:#d62728;stroke:#d62728;" x="214.536364" xlink:href="#mf61bd9cb56" y="223.306154"/>
    </g>
   </g>
   <g id="patch_15">
    <path d="M 47.72 303.64 
L 47.72 194.28 
" style="fill:none;stroke:#000000;stroke-linecap:square;stroke-linejoin:miter;stroke-width:0.8;"/>
   </g>
   <g id="patch_16">
    <path d="M 222.48 303.64 
L 222.48 194.28 
" style="fill:none;stroke:#000000;stroke-linecap:square;stroke-linejoin:miter;stroke-width:0.8;"/>
   </g>
   <g id="patch_17">
    <path d="M 47.72 303.64 
L 222.48 303.64 
" style="fill:none;stroke:#000000;stroke-linecap:square;stroke-linejoin:miter;stroke-width:0.8;"/>
   </g>
   <g id="patch_18">
    <path d="M 47.72 194.28 
L 222.48 194.28 
" style="fill:none;stroke:#000000;stroke-linecap:square;stroke-linejoin:miter;stroke-width:0.8;"/>
   </g>
   <g id="text_39">
    <!-- Efficiency -->
    <defs>
     <path d="M 9.8125 72.90625 
L 55.90625 72.90625 
L 55.90625 64.59375 
L 19.671875 64.59375 
L 19.671875 43.015625 
L 54.390625 43.015625 
L 54.390625 34.71875 
L 19.671875 34.71875 
L 19.671875 8.296875 
L 56.78125 8.296875 
L 56.78125 0 
L 9.8125 0 
z
" id="DejaVuSans-45"/>
    </defs>
    <g transform="translate(106.106875 188.28)scale(0.12 -0.12)">
     <use xlink:href="#DejaVuSans-45"/>
     <use x="63.183594" xlink:href="#DejaVuSans-66"/>
     <use x="98.388672" xlink:href="#DejaVuSans-66"/>
     <use x="133.59375" xlink:href="#DejaVuSans-69"/>
     <use x="161.376953" xlink:href="#DejaVuSans-63"/>
     <use x="216.357422" xlink:href="#DejaVuSans-69"/>
     <use x="244.140625" xlink:href="#DejaVuSans-65"/>
     <use x="305.664062" xlink:href="#DejaVuSans-6e"/>
     <use x="369.042969" xlink:href="#DejaVuSans-63"/>
     <use x="424.023438" xlink:href="#DejaVuSans-79"/>
    </g>
   </g>
   <g id="legend_3">
    <g id="patch_19">
     <path d="M 52.578 300.17 
L 130.988072 300.17 
Q 132.376072 300.17 132.376072 298.782 
L 132.376072 258.729525 
Q 132.376072 257.341525 130.988072 257.341525 
L 52.578 257.341525 
Q 51.19 257.341525 51.19 258.729525 
L 51.19 298.782 
Q 51.19 300.17 52.578 300.17 
z
" style="fill:#ffffff;opacity:0.8;stroke:#cccccc;stroke-linejoin:miter;"/>
    </g>
    <g id="line2d_73">
     <path d="M 53.966 262.961841 
L 67.846 262.961841 
" style="fill:none;stroke:#1f77b4;stroke-linecap:square;stroke-width:1.5;"/>
    </g>
    <g id="line2d_74">
     <g>
      <use style="fill:#1f77b4;stroke:#1f77b4;" x="60.906" xlink:href="#m8f4bba484c" y="262.961841"/>
     </g>
    </g>
    <g id="text_40">
     <!-- Grid 100x100 -->
     <g transform="translate(73.398 265.390841)scale(0.0694 -0.0694)">
      <use xlink:href="#DejaVuSans-47"/>
      <use x="77.490234" xlink:href="#DejaVuSans-72"/>
      <use x="118.603516" xlink:href="#DejaVuSans-69"/>
      <use x="146.386719" xlink:href="#DejaVuSans-64"/>
      <use x="209.863281" xlink:href="#DejaVuSans-20"/>
      <use x="241.650391" xlink:href="#DejaVuSans-31"/>
      <use x="305.273438" xlink:href="#DejaVuSans-30"/>
      <use x="368.896484" xlink:href="#DejaVuSans-30"/>
      <use x="432.519531" xlink:href="#DejaVuSans-78"/>
      <use x="491.699219" xlink:href="#DejaVuSans-31"/>
      <use x="555.322266" xlink:href="#DejaVuSans-30"/>
      <use x="618.945312" xlink:href="#DejaVuSans-30"/>
     </g>
    </g>
    <g id="line2d_75">
     <path d="M 53.966 273.148459 
L 67.846 273.148459 
" style="fill:none;stroke:#ff7f0e;stroke-linecap:square;stroke-width:1.5;"/>
    </g>
    <g id="line2d_76">
     <g>
      <use style="fill:#ff7f0e;stroke:#ff7f0e;" x="60.906" xlink:href="#m7c2fb3ee7e" y="273.148459"/>
     </g>
    </g>
    <g id="text_41">
     <!-- Grid 600x600 -->
     <g transform="translate(73.398 275.577459)scale(0.0694 -0.0694)">
      <use xlink:href="#DejaVuSans-47"/>
      <use x="77.490234" xlink:href="#DejaVuSans-72"/>
      <use x="118.603516" xlink:href="#DejaVuSans-69"/>
      <use x="146.386719" xlink:href="#DejaVuSans-64"/>
      <use x="209.863281" xlink:href="#DejaVuSans-20"/>
      <use x="241.650391" xlink:href="#DejaVuSans-36"/>
      <use x="305.273438" xlink:href="#DejaVuSans-30"/>
      <use x="368.896484" xlink:href="#DejaVuSans-30"/>
      <use x="432.519531" xlink:href="#DejaVuSans-78"/>
      <use x="491.699219" xlink:href="#DejaVuSans-36"/>
      <use x="555.322266" xlink:href="#DejaVuSans-30"/>
      <use x="618.945312" xlink:href="#DejaVuSans-30"/>
     </g>
    </g>
    <g id="line2d_77">
     <path d="M 53.966 283.335078 
L 67.846 283.335078 
" style="fill:none;stroke:#2ca02c;stroke-linecap:square;stroke-width:1.5;"/>
    </g>
    <g id="line2d_78">
     <g>
      <use style="fill:#2ca02c;stroke:#2ca02c;" x="60.906" xlink:href="#mbc9deb2a6a" y="283.335078"/>
     </g>
    </g>
    <g id="text_42">
     <!-- Grid 1000x1000 -->
     <g transform="translate(73.398 285.764078)scale(0.0694 -0.0694)">
      <use xlink:href="#DejaVuSans-47"/>
      <use x="77.490234" xlink:href="#DejaVuSans-72"/>
      <use x="118.603516" xlink:href="#DejaVuSans-69"/>
      <use x="146.386719" xlink:href="#DejaVuSans-64"/>
      <use x="209.863281" xlink:href="#DejaVuSans-20"/>
      <use x="241.650391" xlink:href="#DejaVuSans-31"/>
      <use x="305.273438" xlink:href="#DejaVuSans-30"/>
      <use x="368.896484" xlink:href="#DejaVuSans-30"/>
      <use x="432.519531" xlink:href="#DejaVuSans-30"/>
      <use x="496.142578" xlink:href="#DejaVuSans-78"/>
      <use x="555.322266" xlink:href="#DejaVuSans-31"/>
      <use x="618.945312" xlink:href="#DejaVuSans-30"/>
      <use x="682.568359" xlink:href="#DejaVuSans-30"/>
      <use x="746.191406" xlink:href="#DejaVuSans-30"/>
     </g>
    </g>
    <g id="line2d_79">
     <path d="M 53.966 293.521697 
L 67.846 293.521697 
" style="fill:none;stroke:#d62728;stroke-linecap:square;stroke-width:1.5;"/>
    </g>
    <g id="line2d_80">
     <g>
      <use style="fill:#d62728;stroke:#d62728;" x="60.906" xlink:href="#mf61bd9cb56" y="293.521697"/>
     </g>
    </g>
    <g id="text_43">
     <!-- Grid 1500x1500 -->
     <g transform="translate(73.398 295.950697)scale(0.0694 -0.0694)">
      <use xlink:href="#DejaVuSans-47"/>
      <use x="77.490234" xlink:href="#DejaVuSans-72"/>
      <use x="118.603516" xlink:href="#DejaVuSans-69"/>
      <use x="146.386719" xlink:href="#DejaVuSans-64"/>
      <use x="209.863281" xlink:href="#DejaVuSans-20"/>
      <use x="241.650391" xlink:href="#DejaVuSans-31"/>
      <use x="305.273438" xlink:href="#DejaVuSans-35"/>
      <use x="368.896484" xlink:href="#DejaVuSans-30"/>
      <use x="432.519531" xlink:href="#DejaVuSans-30"/>
      <use x="496.142578" xlink:href="#DejaVuSans-78"/>
      <use x="555.322266" xlink:href="#DejaVuSans-31"/>
      <use x="618.945312" xlink:href="#DejaVuSans-35"/>
      <use x="682.568359" xlink:href="#DejaVuSans-30"/>
      <use x="746.191406" xlink:href="#DejaVuSans-30"/>
     </g>
    </g>
   </g>
  </g>
 </g>
 <defs>
  <clipPath id="pe2c6f7cf09">
   <rect height="109.36" width="174.76" x="47.72" y="26.88"/>
  </clipPath>
  <clipPath id="pd1905f9b47">
   <rect height="109.36" width="174.76" x="272.72" y="26.88"/>
  </clipPath>
  <clipPath id="p32f49ea87c">
   <rect height="109.36" width="174.76" x="47.72" y="194.28"/>
  </clipPath>
 </defs>
</svg>
